<svg width="88" height="105" viewBox="0 0 88 105" fill="none" xmlns="http://www.w3.org/2000/svg">
<g clip-path="url(#clip0_50_5439)">
<path d="M45.5657 26.1099C45.0516 16.1455 40.2847 6.47687 32.6982 0C34.3651 3.98576 32.5269 8.57874 33.2591 12.8292C33.7731 15.9119 35.6269 18.6366 37.9013 20.7696C40.1757 22.9026 42.8862 24.5218 45.5657 26.1099Z" fill="#87BE00"/>
<path d="M63.7607 5.34075C66.8451 6.27491 69.3064 8.57918 71.5808 10.8523C73.8708 13.1254 76.2075 15.5076 79.214 16.6597C82.2206 17.8274 86.1151 17.3759 88 14.7602C86.9251 17.952 83.2487 19.5867 79.8839 19.649C76.519 19.7113 73.2477 18.6214 69.8984 18.1699C60.723 16.9244 51.0179 20.8479 45.3008 28.1343C45.3942 22.4515 46.1108 16.5351 49.2109 11.7553C52.2953 6.97553 58.324 3.69039 63.7607 5.34075Z" fill="#87BE00"/>
<path d="M58.1214 18.2322C59.539 16.0525 60.2088 13.4836 61.1746 11.0703C59.1495 15.492 55.8002 19.3065 51.6565 21.8443C51.9213 21.8755 52.2017 21.8755 52.4665 21.8755C53.8841 21.0347 55.3796 20.303 56.9219 19.7269C57.3736 19.2754 57.7786 18.7772 58.1214 18.2478V18.2322Z" fill="#ADD250"/>
<path d="M60.0999 18.7304C60.9878 18.5124 61.8757 18.3411 62.7637 18.201C63.1843 17.9675 63.5737 17.7028 63.9165 17.3758C65.0536 16.3171 65.7547 14.7913 65.8481 13.2344C64.3215 15.4141 62.3431 17.2824 60.0999 18.7148V18.7304Z" fill="#ADD250"/>
<path d="M69.1663 18.0918C70.7865 17.5468 72.1729 16.2079 72.5156 14.5264C70.8332 15.8031 69.0261 16.9396 67.1724 17.9672C67.8422 17.9828 68.5121 18.0295 69.1663 18.0918Z" fill="#ADD250"/>
<path d="M42.6214 79.1856C43.2913 59.9885 44.8647 40.8226 47.1702 21.7656C39.7863 40.6202 39.428 61.3742 39.1787 81.6144C39.1787 82.7198 40.9079 83.0468 41.7023 82.2839C42.4968 81.521 42.5903 80.291 42.6214 79.1856Z" fill="#87BE00"/>
<path d="M85.9438 27.1846C82.5322 30.9212 80.398 35.6232 78.3417 40.2473C76.2854 44.8714 74.2136 49.5889 70.8955 53.4034C67.5773 57.2179 62.7638 60.0827 57.7009 59.7869C51.0803 59.3977 45.5501 53.8394 38.9294 53.6837C40.1445 47.1445 42.7928 40.7455 47.3416 35.919C51.8903 31.0769 58.4954 27.9475 65.1316 28.4613C68.5743 28.7259 71.8924 29.9092 75.3352 30.096C79.0583 30.2985 82.8438 29.2553 85.9438 27.2001V27.1846Z" fill="#87BE00"/>
<path d="M39.9419 52.9986C46.0173 48.9194 53.1832 46.8798 60.0375 44.3264C66.8918 41.773 73.824 38.4412 78.2637 32.6338C76.8929 36.3393 73.9175 39.2975 70.5526 41.3838C67.1878 43.4701 63.4179 44.7935 59.6792 46.1013C53.1053 48.4056 46.5158 50.6943 39.9419 52.9986Z" fill="#ADD250"/>
<path d="M54.7723 43.1425C56.8597 40.3089 58.9783 37.4285 60.0999 34.0967C55.6291 39.4681 51.1738 44.8551 46.7029 50.2266C50.1923 49.1834 52.6069 46.0851 54.7567 43.1425H54.7723Z" fill="#ADD250"/>
<path d="M64.8823 41.2435C66.1285 38.9392 67.4059 36.5571 67.6552 33.957C65.817 38.2542 63.0285 42.131 59.5391 45.2293C60.7074 45.5251 61.9536 45.0113 62.8416 44.1861C63.7295 43.3765 64.3059 42.3022 64.8823 41.2435Z" fill="#ADD250"/>
<path d="M52.4821 49.2307C51.3449 48.7791 49.974 48.2653 48.9771 48.9815C52.3107 50.3828 55.7223 51.7996 59.3208 52.111C62.9193 52.4224 66.8294 51.4571 69.2284 48.748C64.0098 51.1301 57.8253 51.3014 52.4821 49.2307Z" fill="#ADD250"/>
<path d="M74.3069 44.1699C69.7114 45.0729 64.9913 45.2598 60.3335 44.6993C61.0657 45.6802 62.2496 46.2095 63.4335 46.5209C67.1567 47.5173 71.3316 46.6143 74.3069 44.1699Z" fill="#ADD250"/>
<path d="M41.2661 38.192C39.0696 33.4277 35.3153 29.3797 30.7198 26.8263C26.1398 24.2885 20.8745 23.2609 15.6714 22.8405C10.4528 22.4202 5.21862 22.5759 0 22.2178C3.58294 25.8922 4.98495 31.1546 5.70154 36.2302C6.40255 41.3059 6.57391 46.5216 8.25633 51.3637C9.93875 56.2058 13.5373 60.7987 18.5534 61.8886C22.4011 62.7293 26.3735 61.4059 29.9876 59.8334C32.7916 58.619 35.5489 57.2333 37.8856 55.256C40.2223 53.2787 42.0917 50.6786 42.746 47.6893C43.4314 44.4976 42.6525 41.1502 41.2972 38.192H41.2661Z" fill="#87BE00"/>
<path d="M40.3314 52.3439C34.7234 51.4409 29.645 48.327 25.4856 44.4658C21.3263 40.589 17.977 35.9494 14.6589 31.3408C20.4695 34.0032 23.3514 40.5268 27.9937 44.9329C31.4832 48.2492 35.954 50.3355 40.3314 52.3595V52.3439Z" fill="#ADD250"/>
<path d="M34.7857 50.6625C33.6174 46.1474 32.449 41.6167 31.2807 37.1016C31.2184 40.9628 31.7636 44.824 32.9008 48.5139C33.1968 49.4948 33.7576 50.6158 34.7857 50.6625Z" fill="#ADD250"/>
<path d="M26.0776 43.9833C25.1117 40.1532 24.1459 36.3076 23.1801 32.4775C23.0866 34.5171 23.0087 36.5879 23.367 38.5963C23.7253 40.6048 24.5665 42.5976 26.0932 43.9833H26.0776Z" fill="#ADD250"/>
<path d="M21.5911 43.7809C17.9614 43.7809 13.6931 42.0682 10.6086 40.1221C14.8303 44.2635 20.9524 46.3965 26.8409 45.7738C26.763 44.5749 26.3112 44.3414 25.1585 43.9988C24.0057 43.6719 22.7906 43.7809 21.5911 43.7809Z" fill="#ADD250"/>
<path d="M14.9705 47.2686C17.167 50.1645 20.4695 52.1885 24.0368 52.8735C27.6042 53.543 32.2309 52.5466 35.3309 50.6627C34.661 50.2734 33.2902 50.0088 32.9319 49.3393C30.2057 50.8962 26.872 51.0831 23.7876 50.4914C20.7032 49.8998 17.8212 48.592 14.9705 47.2841V47.2686Z" fill="#ADD250"/>
<path d="M71.1914 94.3976C62.6859 101.17 51.8592 104.969 40.9702 105C30.0967 105.031 19.2389 101.295 10.7021 94.5688C14.1605 90.0226 18.2107 85.8655 23.0243 82.7672C27.8379 79.6689 33.446 77.6916 39.1631 77.6605C45.332 77.6293 51.3451 79.8558 56.6416 83.0319C61.9225 86.2081 66.5804 90.3184 71.207 94.3976H71.1914Z" fill="#664A3B"/>
</g>
<defs>
<clipPath id="clip0_50_5439">
<rect width="88" height="105" fill="white"/>
</clipPath>
</defs>
</svg>
