<svg width="126" height="191" viewBox="0 0 126 191" fill="none" xmlns="http://www.w3.org/2000/svg">
<g clip-path="url(#clip0_48_899)">
<path d="M77.1488 47.7128C77.1312 47.7128 77.1135 47.7101 77.0959 47.7047C76.9982 47.6751 76.9439 47.5739 76.9724 47.4768C76.9873 47.4269 77.3483 46.2483 78.085 45.361C78.3822 45.0037 78.8001 44.7434 79.2628 44.6301C79.6508 44.5357 80.2098 44.378 80.6739 44.1689C80.9778 44.0314 81.3238 44.0381 81.6237 44.1865L82.3726 44.5816C82.4622 44.6288 82.4961 44.7394 82.4486 44.8284C82.4011 44.9174 82.2899 44.9511 82.2003 44.9039L81.4554 44.5101C81.26 44.413 81.0294 44.409 80.8258 44.5007C80.336 44.7218 79.7526 44.8864 79.351 44.9848C78.9643 45.0792 78.6156 45.2963 78.3686 45.593C77.6807 46.4237 77.3279 47.5712 77.3238 47.582C77.2994 47.6616 77.2275 47.7115 77.1475 47.7115L77.1488 47.7128Z" fill="#231F20"/>
<path d="M102.939 22.6873C106.139 25.7241 111.239 25.6742 114.376 22.574C115.108 21.8499 115.673 21.0246 116.072 20.144L126 29.6443L116.441 39.5113C117.327 39.9077 118.158 40.4701 118.886 41.1969C122.007 44.3147 122.056 49.3837 119 52.5635C115.863 55.8282 110.657 55.9348 107.388 52.8062C106.692 52.1401 106.139 51.3795 105.732 50.5664L96.1729 60.4334L66.5762 32.1134C65.8123 31.3825 65.7892 30.1742 66.5246 29.415L95.0195 0L104.948 9.50024C104.128 9.90479 103.364 10.4536 102.694 11.1468C99.5459 14.3953 99.6531 19.5696 102.938 22.6873H102.939Z" fill="#15A33D"/>
<path d="M68.3777 68.5479H41.5869V70.0825H68.3777V68.5479Z" fill="#231F20"/>
<path d="M71.3791 82.2764H44.5884V83.811H71.3791V82.2764Z" fill="#231F20"/>
<path d="M81.3763 125.197H53.188V126.732H81.3763V125.197Z" fill="#231F20"/>
<path d="M77.9124 111.033H49.7241V112.568H77.9124V111.033Z" fill="#231F20"/>
<path d="M74.4486 96.8711H46.2603V98.4057H74.4486V96.8711Z" fill="#231F20"/>
<path d="M61.4619 41.6621L73.9218 96.8714L74.2677 98.406L77.1171 111.035L77.4645 112.568L80.3138 125.197L80.6598 126.73L83.5092 139.359L83.8552 140.893L86.7059 153.521L87.0519 155.055L89.6977 166.778L90.0437 168.311L95.163 191H97.2227L65.4239 50.0957L63.5202 41.6621H61.4619Z" fill="#231F20"/>
<path d="M33.7188 41.6621L46.26 97.2355L46.5232 98.406L67.4199 191H69.4782L64.3589 168.311L64.0129 166.778L61.367 155.055L61.021 153.521L58.1703 140.893L57.8243 139.359L54.975 126.73L54.629 125.197L51.7783 112.568L51.4323 111.035L48.5829 98.406L48.2369 96.8714L42.1908 70.0806L41.8448 68.5473L35.7771 41.6621H33.7188Z" fill="#231F20"/>
<path d="M88.3055 153.521H60.1172V155.055H88.3055V153.521Z" fill="#231F20"/>
<path d="M91.3558 166.778H63.1675V168.313H91.3558V166.778Z" fill="#231F20"/>
<path d="M84.8416 139.359H56.6533V140.894H84.8416V139.359Z" fill="#231F20"/>
<path d="M56.4934 68.5479H29.7026V70.0825H56.4934V68.5479Z" fill="#1774FF"/>
<path d="M44.0335 125.197H15.8452V126.732H44.0335V125.197Z" fill="#1774FF"/>
<path d="M47.4974 111.033H19.3091V112.568H47.4974V111.033Z" fill="#1774FF"/>
<path d="M50.9627 96.8711H22.7744V98.4057H50.9627V96.8711Z" fill="#1774FF"/>
<path d="M35.7594 41.6621L23.301 96.8714L22.955 98.406L20.1056 111.035L19.7583 112.568L16.9089 125.197L16.5629 126.73L13.7136 139.359L13.3662 140.893L10.5168 153.521L10.1709 155.055L7.52502 166.778L7.17903 168.311L2.05832 191H0L31.7988 50.0957L33.7011 41.6621H35.7594Z" fill="#1774FF"/>
<path d="M41.4202 130.399H43.4785L29.803 191H27.7446L32.864 168.311L33.21 166.778L35.8558 155.056L36.2018 153.521L39.0525 140.894L39.3985 139.359L41.4202 130.399Z" fill="#1774FF"/>
<path d="M63.5043 41.6621L50.9631 97.2355L50.6985 98.406L46.2467 118.136H44.187L45.4434 112.568L45.7908 111.035L48.6402 98.406L48.9861 96.8714L55.0322 70.0806L55.3782 68.5473L61.446 41.6621H63.5043Z" fill="#1774FF"/>
<path d="M37.1053 153.521H8.91699V155.055H37.1053V153.521Z" fill="#1774FF"/>
<path d="M34.054 166.778H5.86572V168.313H34.054V166.778Z" fill="#1774FF"/>
<path d="M40.5696 139.359H12.3813V140.894H40.5696V139.359Z" fill="#1774FF"/>
<path d="M86.1511 43.1458C86.1511 43.1458 85.0005 44.2259 84.4482 44.9973C84.4482 44.9973 85.8566 45.4153 84.8051 46.5791C84.8051 46.5791 85.7413 47.167 84.7711 48.1959C84.7711 48.1959 85.0113 49.0455 84.3356 49.6941C84.3356 49.6941 83.0561 51.3298 79.6247 52.7943C79.6247 52.7943 80.1511 49.8033 77.1484 47.8008C77.1484 47.8008 77.8038 45.3236 79.1945 44.9285C79.1945 44.9285 79.4428 44.8395 79.7821 44.7383L80.7033 45.6284L82.166 44.8085L82.2868 44.8718L82.9516 44.4309C82.9516 44.4309 84.6572 42.6805 85.9435 42.543C85.9435 42.543 86.4998 42.8073 86.1511 43.1417V43.1458Z" fill="#F2F2F2"/>
<path d="M84.0655 48.9172C84.2595 48.9779 84.4536 49.0372 84.6489 49.0979C83.6449 50.1996 82.4834 51.1597 81.2121 51.9405C80.7019 52.2534 80.1008 52.5474 79.5269 52.3801C79.1212 52.2615 78.8145 51.9338 78.5635 51.5953C77.6368 50.3466 76.7114 48.6596 77.3342 47.2356C77.607 46.6139 77.7793 46.0017 78.1999 45.5715C78.6205 45.14 79.1212 44.9701 79.5866 45.3517C79.7969 45.5243 79.957 45.7967 80.2257 45.8304C80.5974 45.8776 80.8661 45.438 81.2392 45.3989C81.7426 45.3463 81.9814 45.9774 82.3084 46.3617C82.7589 46.8917 83.6435 46.9834 84.1944 46.5573C84.0913 46.9915 83.9882 47.4257 83.8837 47.8599C84.174 47.8937 84.4644 47.9274 84.7548 47.9597C84.3694 48.1148 84.0899 48.5018 84.0655 48.9158V48.9172Z" fill="#DEEBFC"/>
<path d="M42.0011 32.6074C42.2874 33.5958 42.5751 34.5829 42.8614 35.5714C42.9943 36.0285 43.1273 36.4843 43.2589 36.9415C43.6972 38.4491 44.1354 40.0592 43.6836 41.5628C43.2766 42.914 42.1246 44.0184 40.7501 44.3717C40.6674 44.0252 40.5832 43.6786 40.5005 43.332C40.1423 43.39 39.7841 43.4494 39.4259 43.5073C39.7135 44.191 39.4923 45.0177 38.9971 45.5706C38.5019 46.1248 37.7759 46.4323 37.0419 46.559C36.5399 46.6453 35.9727 46.6399 35.5806 46.3163C35.1193 45.936 35.0582 45.2658 35.0351 44.6698C34.9646 42.9073 34.9035 41.1313 35.1817 39.389C35.4598 37.6467 36.1016 35.922 37.2821 34.6045C38.4625 33.287 40.2345 32.4294 41.9998 32.606L42.0011 32.6074Z" fill="#DEEBFC"/>
<path d="M23.388 78.4256L24.7733 74.7415H43.2778V73.5292C43.2778 73.5292 46.077 72.7686 45.9237 69.7358L46.9712 59.8607L55.8422 64.5629C55.8422 64.5629 60.3672 66.2445 64.2749 63.8698L75.903 55.5212L77.0414 54.2495L78.7795 52.665C78.7795 52.665 79.0387 49.3221 76.1947 47.6081C76.1947 47.6081 75.8772 47.3722 74.7931 48.219C74.7931 48.219 74.5597 47.6351 72.8447 48.691L61.1705 55.8799L53.0145 51.5444C53.0145 51.5444 50.1326 49.7725 49.2737 49.0524L47.5492 48.0154C47.5492 48.0154 45.7975 47.1591 44.309 46.9878L40.7745 46.6075C40.7745 46.6075 40.8111 45.0136 39.7541 45.0622C39.7541 45.0622 37.2793 44.4634 34.0934 45.0716C34.0934 45.0716 33.2115 44.9502 33.1423 45.9791V46.9878L28.1125 48.6155C28.1125 48.6155 24.4192 49.8413 23.2211 53.4661L20.8398 59.2579L17.4043 66.8959C17.4043 66.8959 14.8819 71.799 19.905 75.7003L23.388 78.4256Z" fill="url(#paint0_linear_48_899)"/>
<path d="M61.8283 86.3168L44.3644 77.3681L44.2287 74.7412H34.2695L36.1935 89.8984L50.055 95.1239L36.4839 108.904C35.5327 109.87 35.218 111.288 35.6698 112.563L35.72 112.704L41.5327 114.89L43.3793 113.847C47.1839 112.365 50.2938 109.564 53.1119 106.621L63.4266 95.8508C64.3778 94.8569 64.9585 93.5704 65.0711 92.203L65.0765 92.141C65.276 89.7258 63.9938 87.428 61.8255 86.3168H61.8283Z" fill="#F2F2F2"/>
<path d="M39.3346 114.996C39.2858 114.996 39.2383 114.977 39.2017 114.939C39.1311 114.866 39.1338 114.75 39.2071 114.682L59.7537 95.135C59.8215 95.0703 59.8093 94.9934 59.8012 94.9638C59.793 94.9341 59.7645 94.8613 59.6736 94.8397L59.1132 94.7035C58.8744 94.6455 58.7116 94.45 58.6994 94.2059C58.6872 93.9618 58.8283 93.7514 59.0603 93.6705L60.3968 93.2013C60.5257 93.1554 60.5176 93.0408 60.5108 93.0071C60.5054 92.9734 60.4755 92.8628 60.3385 92.8628H60.2028C60.1187 92.8628 60.0345 92.8426 59.9586 92.8048L42.6345 84.1447C42.5015 84.0786 42.4011 83.9586 42.3577 83.817C42.3142 83.6754 42.3332 83.5203 42.4079 83.3922L42.4146 83.3814C42.4689 83.2897 42.4201 83.2115 42.4038 83.1899C42.3875 83.1684 42.3265 83.0996 42.222 83.1238L40.203 83.5985C39.9466 83.6592 39.6983 83.5405 39.587 83.3032C39.4744 83.0659 39.5409 82.8016 39.7512 82.6424L40.3183 82.2163C40.355 82.1893 40.378 82.1502 40.3862 82.1057L41.5449 75.0099C41.5612 74.9101 41.6562 74.8427 41.7552 74.8588C41.8556 74.875 41.9235 74.9694 41.9072 75.0679L40.7484 82.1637C40.7254 82.3013 40.6521 82.424 40.5395 82.5076L39.9723 82.9337C39.8665 83.0133 39.9059 83.1171 39.9194 83.1468C39.933 83.1764 39.99 83.2722 40.1189 83.2425L42.1379 82.7678C42.3522 82.718 42.5666 82.7948 42.6982 82.9715C42.8298 83.1468 42.842 83.3747 42.7321 83.5635L42.7254 83.5743C42.7009 83.6161 42.6955 83.6646 42.7091 83.7118C42.7226 83.759 42.7552 83.7954 42.7986 83.8183L60.1227 92.4785C60.1472 92.4906 60.1743 92.4973 60.2014 92.4973H60.3371C60.6071 92.4973 60.8269 92.6821 60.8717 92.945C60.9178 93.2093 60.7713 93.4561 60.5176 93.5451L59.1811 94.0144C59.0671 94.0549 59.063 94.1573 59.0644 94.187C59.0658 94.218 59.0807 94.3192 59.1987 94.3475L59.7591 94.4837C59.9545 94.5309 60.1024 94.6752 60.1553 94.868C60.2082 95.0608 60.1512 95.2591 60.006 95.398L39.4595 114.945C39.4242 114.978 39.378 114.996 39.3319 114.996H39.3346Z" fill="#1774FF"/>
<path d="M36.1951 74.7412V89.8984L28.7081 111.075C28.3024 112.224 27.7963 113.337 27.1979 114.401L16.4572 133.488C15.2835 135.574 13.6879 137.396 11.772 138.841L10.7463 139.615L5.86572 136.651V136.611C5.86572 133.977 6.46816 131.379 7.62961 129.012L14.9755 114.026C15.753 112.439 16.3269 110.761 16.6892 109.034C18.7028 99.4081 20.8059 92.4026 21.7529 89.4413C22.0799 88.4178 22.3282 87.37 22.4978 86.3087C23.6539 79.0389 25.7258 74.7439 25.7258 74.7439" fill="#F2F2F2"/>
<path d="M24.9117 81.3651C24.8805 81.3651 24.8493 81.357 24.8208 81.3408L23.6376 80.6733C23.5494 80.6234 23.5182 80.5115 23.5684 80.4238C23.6186 80.3362 23.7312 80.3052 23.8194 80.3551L24.9402 80.9862L28.2929 80.1757L28.5833 79.2371H24.1464C24.0447 79.2371 23.9633 79.1549 23.9633 79.0551C23.9633 78.9553 24.046 78.873 24.1464 78.873H28.8316C28.8899 78.873 28.9442 78.9 28.9795 78.9472C29.0148 78.9944 29.0243 79.0537 29.008 79.109L28.6145 80.3834C28.5955 80.4454 28.5453 80.4926 28.4829 80.5074L24.9578 81.3597C24.9429 81.3637 24.9293 81.3651 24.9144 81.3651H24.9117Z" fill="#1774FF"/>
<path d="M8.91701 140.086C8.8858 140.086 8.85595 140.078 8.8261 140.062C8.7379 140.012 8.7067 139.901 8.7569 139.812L24.2981 112.493L31.9412 89.6641C31.9737 89.5683 32.0769 89.5171 32.1732 89.5481C32.2695 89.5805 32.3211 89.683 32.2899 89.7787L24.6414 112.625C24.6373 112.636 24.6333 112.647 24.6265 112.657L9.07576 139.992C9.04184 140.051 8.97942 140.085 8.91565 140.085L8.91701 140.086Z" fill="#1774FF"/>
<path d="M40.6332 44.3865C40.5396 44.3865 40.4595 44.3164 40.45 44.222C40.4405 44.1222 40.5138 44.0319 40.6156 44.0224C41.469 43.9388 42.1067 43.808 42.6834 43.5963C43.2587 43.3846 44.6332 42.7629 44.9575 41.5439C45.336 40.1171 45.18 39.3418 44.6834 38.147C43.891 36.2348 43.2709 34.4359 42.8177 31.8737C42.8001 31.7739 42.8666 31.6795 42.967 31.662C43.0674 31.6445 43.1624 31.7105 43.18 31.8103C43.6264 34.3401 44.2397 36.1175 45.0226 38.0081C45.5395 39.2568 45.7159 40.1185 45.3116 41.6383C45.0524 42.6132 44.1406 43.452 42.8096 43.9402C42.2017 44.1627 41.5369 44.3016 40.6509 44.3879C40.6454 44.3879 40.6386 44.3879 40.6332 44.3879V44.3865Z" fill="#231F20"/>
<path d="M41.2029 38.222C41.4892 38.2746 41.7673 38.0494 41.8745 37.781C41.9817 37.5127 41.96 37.2119 41.9369 36.9234C41.8406 35.7151 41.7429 34.5068 41.6466 33.2986C41.6412 33.2298 42.0238 32.9156 42.0916 32.8414C42.1961 32.7282 42.3019 32.6189 42.4105 32.5151C43.0848 31.8665 43.5665 31.0371 43.7768 30.1282C44.0604 28.8984 43.827 27.7373 42.9179 26.5142C42.4648 25.9034 41.88 25.3734 41.1785 25.0727C40.477 24.772 39.652 24.718 38.9506 25.0187C38.0632 25.3977 37.4974 26.258 36.9845 27.0712C35.8719 26.9269 34.7145 26.7731 33.6209 27.0267C32.5273 27.2802 31.4784 27.9086 30.9466 28.8903C30.4147 29.872 30.5205 31.2232 31.3577 31.9649C30.8801 32.6567 30.3808 33.424 30.123 34.2223C29.8652 35.0206 29.8625 35.9443 30.3143 36.6523C30.6209 37.1337 31.1026 37.4722 31.5422 37.8363C32.1718 38.3568 32.7389 38.9542 33.2274 39.6082C33.8 40.3769 34.0578 41.333 33.9696 42.285C33.9696 42.2864 33.9696 42.2877 33.9696 42.2891C33.9425 42.5817 33.9126 42.9256 34.1433 43.1413C34.3468 43.3315 34.6575 43.4002 34.9275 43.4218C35.7891 43.4906 36.6534 43.4812 37.5164 43.4407C38.8203 43.3814 40.6317 43.2883 40.7877 41.6202C40.8406 41.0471 40.6127 40.4834 40.1866 40.0951C39.4282 39.4046 38.6534 38.64 38.5598 37.6232C38.5055 37.0366 38.686 36.3502 39.3522 36.2019C39.6629 36.1331 39.9858 36.2167 40.245 36.4015C40.8406 36.8263 41.0197 37.5302 41.1825 38.1977" fill="#231F20"/>
<path d="M36.2763 43.6569C35.7851 43.6569 35.3387 43.6393 34.9167 43.6056C34.5233 43.5746 34.222 43.464 34.0226 43.2766C33.7241 42.9988 33.7634 42.5794 33.7919 42.2733V42.2679C33.8774 41.3496 33.6264 40.4434 33.085 39.7179C32.6033 39.0733 32.047 38.4867 31.4297 37.977C31.355 37.9149 31.2791 37.8543 31.2031 37.7922C30.8245 37.4888 30.4337 37.1746 30.1637 36.7498C29.7228 36.058 29.6454 35.1168 29.9521 34.1661C30.2058 33.3799 30.6793 32.6355 31.1217 31.9882C30.3605 31.2034 30.2112 29.8657 30.7879 28.8017C31.3035 27.851 32.3211 27.139 33.5816 26.8464C34.6684 26.5942 35.7973 26.7304 36.8936 26.872C37.3631 26.1303 37.9493 25.2457 38.8801 24.8479C39.5951 24.5418 40.4594 24.562 41.2532 24.9018C41.9248 25.1904 42.553 25.7082 43.0673 26.4027C43.9818 27.6353 44.264 28.8314 43.9573 30.1664C43.7416 31.1036 43.2518 31.9599 42.5394 32.6436C42.4268 32.7515 42.3251 32.8567 42.2287 32.9619C42.2043 32.9888 42.1622 33.0266 42.0903 33.0913C42.0211 33.1534 41.8882 33.2734 41.8339 33.3354L42.1202 36.9062C42.1419 37.1854 42.1704 37.532 42.0442 37.8448C41.9153 38.1671 41.5652 38.4705 41.169 38.3977C41.1229 38.3896 41.0849 38.3653 41.0578 38.3316C41.032 38.3087 41.0144 38.2777 41.0049 38.2413C40.857 37.6331 40.6901 36.944 40.1392 36.5502C39.9113 36.3871 39.6399 36.3264 39.3943 36.3803C38.682 36.5381 38.7281 37.4295 38.7444 37.6061C38.8312 38.5406 39.5354 39.2527 40.3129 39.9593C40.7837 40.3881 41.0306 41.0152 40.9737 41.6355C40.8027 43.4708 38.8312 43.5611 37.5273 43.6218C37.0755 43.642 36.6616 43.6528 36.2749 43.6528L36.2763 43.6569ZM34.9222 27.0729C34.4961 27.0729 34.0755 27.1093 33.6657 27.2037C32.5083 27.4721 31.5776 28.118 31.1122 28.977C30.5939 29.9318 30.758 31.1845 31.4839 31.8291C31.5531 31.8898 31.5653 31.9936 31.5124 32.0692C31.0606 32.7232 30.5559 33.4891 30.3021 34.2794C30.0294 35.1262 30.0918 35.9569 30.4745 36.557C30.7119 36.9305 31.0633 37.2124 31.4337 37.5104C31.5111 37.5724 31.5884 37.6344 31.6644 37.6978C32.3035 38.2264 32.8815 38.8333 33.3794 39.5021C33.9751 40.2991 34.2505 41.2956 34.1569 42.3043V42.3097C34.1338 42.5646 34.1067 42.8559 34.2736 43.0109C34.4093 43.1377 34.6427 43.2173 34.9466 43.2415C35.6861 43.3009 36.5015 43.3063 37.5124 43.2604C38.7593 43.2024 40.4676 43.1242 40.6087 41.6058C40.6562 41.0988 40.4526 40.585 40.0659 40.233C39.2668 39.5062 38.4784 38.7065 38.3794 37.6439C38.3197 37.0074 38.53 36.2023 39.3142 36.0284C39.6616 35.9515 40.0415 36.0351 40.3536 36.2576C40.9764 36.7026 41.1826 37.4295 41.3332 38.043C41.492 38.0174 41.6399 37.8677 41.7023 37.714C41.7959 37.4794 41.7728 37.1921 41.7525 36.9386L41.4621 33.3152C41.4513 33.1884 41.5462 33.0913 41.842 32.8243C41.8882 32.7825 41.9411 32.7353 41.9547 32.7205C42.0564 32.6086 42.1636 32.4993 42.2817 32.3847C42.9424 31.7496 43.397 30.9553 43.5964 30.0882C43.8786 28.8637 43.6154 27.7634 42.7688 26.6225C42.2925 25.9806 41.7172 25.5033 41.1039 25.2403C40.4024 24.9396 39.644 24.9207 39.0212 25.1864C38.2193 25.5289 37.6942 26.2867 37.1392 27.1687C37.1012 27.2294 37.0307 27.2617 36.9601 27.2523L36.9398 27.2496C36.2709 27.1619 35.5884 27.0743 34.9181 27.0743L34.9222 27.0729Z" fill="#231F20"/>
<path d="M40.7051 45.2449C40.6101 45.2449 40.5287 45.1721 40.5219 45.0764C40.4799 44.5167 40.4256 43.9409 40.3605 43.3638C40.3496 43.264 40.4215 43.1736 40.5233 43.1615C40.6237 43.1493 40.7146 43.2222 40.7268 43.3233C40.7919 43.9045 40.8476 44.4857 40.8896 45.0494C40.8978 45.1505 40.8218 45.2382 40.72 45.2449C40.7159 45.2449 40.7105 45.2449 40.7065 45.2449H40.7051Z" fill="#231F20"/>
<path d="M35.0459 45.255C34.9496 45.255 34.8682 45.1794 34.8627 45.0824C34.8125 44.1991 34.7501 43.4466 34.7501 43.4385C34.742 43.3374 34.8166 43.2497 34.9184 43.2416C35.0201 43.2349 35.1083 43.3077 35.1165 43.4089C35.1165 43.4169 35.1802 44.1735 35.2304 45.0621C35.2359 45.1633 35.1585 45.2496 35.0568 45.255C35.0527 45.255 35.05 45.255 35.0459 45.255Z" fill="#231F20"/>
<path d="M24.3402 78.6082C24.3022 78.6082 24.2629 78.5961 24.2303 78.5718L23.4461 77.9866C23.4461 77.9866 23.4433 77.9839 23.442 77.9839L20.3063 75.4986C18.8382 74.3348 17.8871 72.6762 17.6293 70.8274L17.6225 70.7788C17.4339 69.4316 17.6293 68.0643 18.1883 66.8223L22.5058 57.225L24.0444 53.2927C24.6007 51.87 25.5369 50.6254 26.7513 49.6922L26.7812 49.6693C27.5519 49.0773 28.4121 48.6255 29.3388 48.3275L33.7811 46.894C35.0728 46.4773 36.4161 46.2656 37.7743 46.2656H39.3007C39.8787 46.2656 40.4635 46.2953 41.0388 46.3546L44.6331 46.7214C46.5842 46.921 48.4675 47.6141 50.0794 48.728L52.9383 50.7036C53.2951 50.9503 53.671 51.1796 54.055 51.3832L62.1173 55.6688L73.8132 48.4664C74.2895 48.1738 74.8119 47.9823 75.3654 47.8973L75.4496 47.8838C75.4862 47.8784 75.5228 47.8838 75.5554 47.8987C75.5812 47.9108 76.204 48.2075 76.881 48.9141C77.5025 49.5641 78.2894 50.6995 78.5065 52.4189C78.5065 52.427 78.5079 52.4337 78.5079 52.4418V52.462C78.5079 53.7728 77.8715 55.0161 76.805 55.7888L66.3194 63.3863C64.7265 64.5406 62.8432 65.2108 60.8744 65.3227L60.8161 65.3268C58.8962 65.436 56.9898 65.0085 55.3032 64.0889L45.9736 59.0023C45.8841 58.9537 45.8515 58.8432 45.9004 58.7542C45.9492 58.6652 46.0605 58.6328 46.15 58.6813L55.4796 63.7679C57.1051 64.6539 58.9436 65.0665 60.7944 64.9613L60.8527 64.9573C62.7509 64.8494 64.5664 64.2035 66.1023 63.0896L76.588 55.4921C77.5595 54.7882 78.1388 53.6555 78.1388 52.4607V52.4526C77.7779 49.618 75.7793 48.4313 75.4441 48.252L75.4197 48.256C74.915 48.3329 74.4401 48.5082 74.0059 48.7752L62.2204 56.0329C62.1648 56.0666 62.0942 56.0693 62.0372 56.0383L53.8813 51.7028C53.4851 51.4924 53.097 51.2565 52.728 51.0016L49.8691 49.026C48.3088 47.9486 46.4852 47.2757 44.5951 47.0828L41.0008 46.716C40.4377 46.658 39.8652 46.6297 39.2994 46.6297H37.7729C36.4541 46.6297 35.1488 46.8347 33.8937 47.2392L29.4514 48.6727C28.5654 48.9586 27.7432 49.3901 27.005 49.9565L26.9752 49.9794C25.8137 50.8721 24.9182 52.0629 24.385 53.4222L22.845 57.3585C22.845 57.3585 22.8423 57.3638 22.8409 57.3665L18.5221 66.9679C17.9916 68.1465 17.8057 69.4465 17.9848 70.7249L17.9916 70.7734C18.2372 72.5292 19.1395 74.1042 20.5343 75.21L23.6672 77.6926L24.4488 78.2765C24.5302 78.3372 24.5465 78.4518 24.4854 78.5327C24.4488 78.5799 24.3945 78.6055 24.3389 78.6055L24.3402 78.6082Z" fill="#231F20"/>
<path d="M44.2301 74.9234H25.7255C25.6238 74.9234 25.5423 74.8411 25.5423 74.7413V73.9929L24.9263 73.1582C24.3619 72.3936 24.1557 71.4226 24.3619 70.4962L26.9033 59.0744C26.9806 58.7291 26.9209 58.3718 26.7391 58.0684L26.2479 57.2539C26.1963 57.1676 26.2235 57.0556 26.3103 57.003C26.3972 56.9505 26.5098 56.9788 26.5627 57.0651L27.0539 57.8796C27.2859 58.2639 27.3592 58.7157 27.2628 59.1526L24.7215 70.5744C24.5383 71.3984 24.7215 72.2614 25.2235 72.9424L25.8748 73.8257C25.8978 73.8567 25.9101 73.8945 25.9101 73.9336V74.5593H44.0469V73.529C44.0469 73.4602 44.0849 73.3982 44.1459 73.3672L45.1229 72.8682C45.941 72.4502 46.4878 71.6573 46.5842 70.747L47.7416 59.8417C47.7524 59.7419 47.8433 59.669 47.9437 59.6798C48.0441 59.6906 48.1174 59.7796 48.1066 59.8808L46.9492 70.7861C46.8393 71.8191 46.2192 72.7186 45.2898 73.1946L44.4132 73.6423V74.744C44.4132 74.8452 44.3305 74.9261 44.2301 74.9261V74.9234Z" fill="#231F20"/>
<path d="M10.0676 140.784C10.035 140.784 10.0025 140.776 9.97261 140.757L5.45435 138.018C5.38515 137.976 5.35123 137.894 5.37158 137.816L5.68772 136.604C5.7135 136.506 5.81391 136.447 5.9116 136.473C6.00929 136.498 6.06899 136.598 6.04321 136.695L5.76099 137.777L10.0147 140.355L10.594 139.511C10.651 139.427 10.765 139.406 10.8491 139.462C10.9333 139.519 10.955 139.632 10.898 139.716L10.2196 140.704C10.1843 140.756 10.1259 140.784 10.0676 140.784Z" fill="#231F20"/>
<path d="M10.7462 139.796C10.7137 139.796 10.6797 139.787 10.6499 139.769L5.76935 136.805C5.71507 136.771 5.68115 136.713 5.68115 136.649V136.608C5.68115 133.963 6.29716 131.307 7.46268 128.93L14.8086 113.944C15.5766 112.377 16.1478 110.712 16.5074 108.995C18.4856 99.5365 20.5331 92.6483 21.5765 89.3835C21.8981 88.3762 22.1464 87.3311 22.3146 86.2766C23.4625 79.0634 25.5385 74.7037 25.5588 74.6605C25.6022 74.5702 25.7121 74.5311 25.8044 74.5742C25.8953 74.6174 25.9347 74.7266 25.8913 74.8183C25.8709 74.8615 23.8166 79.1767 22.6783 86.3332C22.5073 87.4053 22.2549 88.4693 21.9279 89.4928C20.8859 92.7508 18.8438 99.6255 16.8683 109.068C16.5033 110.815 15.9212 112.509 15.1397 114.103L7.79375 129.089C6.66079 131.399 6.05835 133.976 6.04886 136.546L10.734 139.392L11.6607 138.693C13.5684 137.256 15.1275 135.473 16.2971 133.396L27.0378 114.309C27.6294 113.259 28.1327 112.149 28.5344 111.014L35.9386 90.0686L28.495 89.7476C28.3933 89.7436 28.3146 89.6586 28.32 89.5575C28.3241 89.4564 28.4095 89.3781 28.5113 89.3835L36.2032 89.7153C36.2616 89.718 36.3145 89.7476 36.347 89.7948C36.3796 89.8434 36.3877 89.9027 36.3687 89.958L28.8817 111.135C28.4733 112.291 27.9604 113.419 27.3593 114.489L16.6186 133.576C15.4246 135.697 13.8317 137.516 11.8846 138.984L10.8588 139.758C10.8263 139.783 10.7869 139.796 10.7476 139.796H10.7462Z" fill="#231F20"/>
<path d="M41.5357 115.074C41.514 115.074 41.4923 115.07 41.4705 115.061L35.6579 112.875C35.6076 112.857 35.5683 112.816 35.5493 112.765L35.4991 112.623C35.0269 111.294 35.3621 109.783 36.3553 108.776L49.731 95.1952L36.1314 90.0682C36.0364 90.0318 35.9889 89.9266 36.0242 89.8322C36.0608 89.7378 36.1667 89.6906 36.2616 89.7257L50.1231 94.9511C50.1814 94.9727 50.2235 95.0226 50.2371 95.0833C50.2506 95.144 50.2316 95.206 50.1896 95.2505L36.6185 109.031C35.723 109.94 35.4204 111.302 35.8465 112.501L35.8682 112.563L41.5207 114.688L43.2928 113.686C43.3009 113.682 43.3091 113.678 43.3172 113.675C47.2371 112.149 50.404 109.189 52.9833 106.494L63.298 95.7238C64.2166 94.7637 64.7837 93.5082 64.8923 92.188L64.8977 92.126C65.0917 89.7756 63.8543 87.56 61.7458 86.4784L44.2819 77.5298C44.2236 77.5001 44.1856 77.4421 44.1829 77.3774L44.0472 74.7505C44.0418 74.6493 44.1204 74.5644 44.2209 74.559C44.3226 74.5523 44.4081 74.6318 44.4135 74.7316L44.5438 77.2547L61.9127 86.1548C64.1542 87.3037 65.4689 89.6596 65.2627 92.1557L65.2573 92.2177C65.1419 93.6215 64.5395 94.9565 63.5626 95.976L53.2479 106.747C50.6428 109.466 47.4433 112.456 43.4624 114.011L41.6266 115.048C41.5981 115.064 41.5669 115.072 41.5357 115.072V115.074Z" fill="#231F20"/>
<path d="M40.5694 115.814C40.5491 115.814 40.5301 115.811 40.5111 115.804L35.4094 114.086C35.3212 114.057 35.2696 113.966 35.2886 113.876L35.5423 112.668C35.5627 112.569 35.6604 112.506 35.7594 112.526C35.8585 112.546 35.9222 112.644 35.9019 112.742L35.6807 113.792L40.5355 115.427L41.4229 114.746C41.5029 114.684 41.6182 114.699 41.6807 114.778C41.7431 114.858 41.7281 114.972 41.6481 115.034L40.682 115.776C40.6495 115.802 40.6101 115.814 40.5694 115.814Z" fill="#231F20"/>
<path d="M53.5826 95.3055H50.0562C49.9545 95.3055 49.873 95.2232 49.873 95.1235C49.873 95.0237 49.9558 94.9414 50.0562 94.9414H53.5826C53.6844 94.9414 53.7658 95.0237 53.7658 95.1235C53.7658 95.2232 53.683 95.3055 53.5826 95.3055Z" fill="#231F20"/>
<path d="M34.0948 47.1695C33.993 47.1695 33.9116 47.0872 33.9116 46.9875V45.9788C33.9116 45.4704 34.2753 45.0321 34.7773 44.935C36.0595 44.6882 38.5683 44.3619 40.9753 44.935C41.4027 45.0362 41.7216 45.3787 41.7881 45.8075L41.9075 46.5789C41.9224 46.6786 41.8546 46.7717 41.7541 46.7879C41.6537 46.8041 41.5601 46.7353 41.5438 46.6355L41.4244 45.8641C41.381 45.5837 41.1707 45.3585 40.8885 45.291C38.5493 44.7341 36.0975 45.0537 34.8451 45.2951C34.5154 45.3585 34.2766 45.6457 34.2766 45.9801V46.9888C34.2766 47.0899 34.1938 47.1708 34.0934 47.1708L34.0948 47.1695Z" fill="#231F20"/>
<path d="M37.5844 118.803C37.5777 118.803 37.5709 118.803 37.5627 118.803L32.0947 118.175C32.0282 118.167 31.9712 118.123 31.9454 118.061C31.9196 117.999 31.9305 117.929 31.9739 117.877L35.3253 113.799C35.3891 113.721 35.5058 113.708 35.5845 113.773C35.6632 113.837 35.6754 113.953 35.6102 114.031L32.4705 117.85L37.5152 118.43L40.4379 115.503C40.5098 115.432 40.6251 115.432 40.6984 115.503C40.7703 115.575 40.7703 115.689 40.6984 115.762L37.712 118.751C37.6767 118.786 37.6306 118.804 37.5817 118.804L37.5844 118.803Z" fill="#231F20"/>
<path d="M47.0646 125.313H31.6645C30.9453 125.313 30.3551 124.752 30.3212 124.036C30.2561 122.679 30.3809 119.914 31.9494 116.631C31.9887 116.549 32.081 116.509 32.1692 116.534L37.7322 118.212L39.3618 116.58C39.4039 116.538 39.4622 116.519 39.5219 116.529C39.5802 116.538 39.6304 116.575 39.6576 116.627L40.8489 119.001C41.7593 120.816 43.321 122.182 45.2478 122.848L48.0089 123.803C48.1636 123.857 48.2816 123.975 48.3346 124.129C48.3861 124.283 48.3644 124.45 48.2735 124.585L48.1853 124.717C47.9356 125.089 47.5164 125.312 47.0659 125.312L47.0646 125.313ZM32.214 116.931C30.7432 120.078 30.6251 122.716 30.6875 124.02C30.712 124.54 31.1421 124.949 31.6645 124.949H47.0646C47.3916 124.949 47.6968 124.787 47.8773 124.516L47.9655 124.384C47.9926 124.343 47.9994 124.293 47.9831 124.248C47.9669 124.202 47.9316 124.165 47.8854 124.149L45.1243 123.194C43.1067 122.497 41.4703 121.066 40.5165 119.165L39.4405 117.02L37.9127 118.549C37.8652 118.597 37.7946 118.615 37.7295 118.595L32.2126 116.931H32.214Z" fill="#231F20"/>
<path d="M32.1164 116.709L37.7853 118.419L39.4935 116.709L40.6848 119.083C41.6115 120.929 43.2275 122.342 45.1882 123.02L47.9493 123.975C48.1596 124.048 48.2451 124.299 48.1216 124.484L48.0335 124.616C47.8177 124.937 47.4554 125.129 47.0674 125.129H31.6673C31.0458 125.129 30.537 124.644 30.5072 124.026C30.4393 122.598 30.5886 119.911 32.1177 116.708L32.1164 116.709Z" fill="#231F20"/>
<path d="M3.5615 140.894L8.14761 142.982L10.746 142.175V145.255C10.746 147.547 12.0146 149.655 14.0471 150.739L15.7703 151.659C16.062 151.815 16.1679 152.179 16.0037 152.466L15.6903 153.011C15.5668 153.226 15.3375 153.358 15.0892 153.358H6.99295C6.79349 153.358 6.60489 153.273 6.47328 153.125L1.0405 146.981C0.877679 146.797 0.826119 146.541 0.903458 146.309C1.19246 145.452 2.01471 143.255 3.5615 140.896V140.894Z" fill="#231F20"/>
<path d="M7.71891 145.365C7.68227 145.365 7.64564 145.354 7.61443 145.332L3.89805 142.763C3.83157 142.718 3.80307 142.634 3.82749 142.557L5.37429 137.805C5.4055 137.709 5.50997 137.657 5.60631 137.688C5.70264 137.719 5.75556 137.821 5.72435 137.918L4.21962 142.541L7.65106 144.913L9.90477 140.518C9.9509 140.428 10.0608 140.393 10.1517 140.439C10.2426 140.484 10.2779 140.595 10.2318 140.684L7.88173 145.265C7.8573 145.312 7.81388 145.346 7.76232 145.359C7.7474 145.363 7.73247 145.365 7.71755 145.365H7.71891Z" fill="#231F20"/>
<path d="M15.0892 153.538H6.99294C6.74057 153.538 6.50176 153.431 6.33487 153.243L0.902094 147.099C0.697211 146.867 0.630726 146.541 0.729775 146.248C1.01471 145.402 1.8451 143.176 3.40817 140.794C3.45838 140.718 3.55607 140.69 3.63883 140.728L8.16117 142.787L10.6917 141.999C10.7473 141.982 10.8084 141.992 10.8559 142.026C10.9033 142.06 10.9305 142.115 10.9305 142.173V145.253C10.9305 147.482 12.1584 149.523 14.1353 150.576L15.8585 151.495C16.0444 151.594 16.1787 151.76 16.2357 151.961C16.2941 152.162 16.2683 152.372 16.1638 152.554L15.8504 153.099C15.6943 153.37 15.404 153.537 15.0892 153.537V153.538ZM3.62934 141.125C2.14496 143.423 1.35256 145.547 1.07848 146.364C1.0215 146.534 1.05949 146.723 1.17889 146.858L6.61167 153.002C6.708 153.111 6.84776 153.173 6.99429 153.173H15.0905C15.2724 153.173 15.442 153.076 15.5315 152.918L15.8449 152.373C15.8992 152.278 15.9128 152.167 15.8829 152.062C15.8531 151.957 15.7825 151.869 15.6848 151.818L13.9617 150.898C11.8653 149.78 10.5641 147.617 10.5641 145.253V142.421L8.20459 143.155C8.16117 143.168 8.11504 143.166 8.07298 143.147L3.63069 141.124L3.62934 141.125Z" fill="#231F20"/>
<path d="M77.7809 54.6335C77.7321 54.6335 77.6833 54.6146 77.648 54.5768C77.5788 54.504 77.5815 54.388 77.6548 54.3193L79.382 52.6903C79.4553 52.6215 79.4973 52.5244 79.496 52.4233C79.4594 49.5941 77.8569 48.2604 77.1704 47.8181C77.0537 47.7426 76.9071 47.7399 76.7877 47.8114L75.842 48.3737C75.7552 48.4249 75.6426 48.3966 75.5896 48.3103C75.5381 48.224 75.5666 48.1121 75.6534 48.0595L76.5991 47.4972C76.8393 47.3542 77.1351 47.3596 77.3712 47.5107C78.1079 47.984 79.8257 49.412 79.8637 52.4179C79.8664 52.6201 79.7836 52.8157 79.6357 52.9546L77.9085 54.5836C77.8732 54.6173 77.8271 54.6335 77.7823 54.6335H77.7809Z" fill="#231F20"/>
<path d="M82.4019 46.7973C82.3476 46.7973 82.292 46.773 82.2567 46.7258C82.1943 46.6463 82.2092 46.5316 82.2893 46.4696L83.8632 45.2586C83.969 45.1764 84.0613 45.082 84.1373 44.9782C84.779 44.0868 85.5959 43.2817 86.026 42.8812C86.0667 42.8435 86.0843 42.7895 86.0748 42.7356C86.0653 42.6803 86.0301 42.6358 85.9785 42.6142L85.9717 42.6115C85.9351 42.5953 85.8944 42.594 85.8591 42.6061C84.5212 43.0565 83.4833 44.0221 83.0993 44.4172C82.9826 44.5372 82.8483 44.6397 82.7017 44.7219L80.4914 45.9612C80.2282 46.1096 79.9216 46.15 79.6285 46.0745L79.2337 45.9734C79.136 45.9477 79.0763 45.8493 79.1007 45.7509C79.1265 45.6538 79.2255 45.5944 79.3246 45.6187L79.7194 45.7198C79.9202 45.7711 80.1305 45.7441 80.311 45.6416L82.5213 44.4023C82.638 44.3376 82.7438 44.2554 82.8361 44.161C83.239 43.747 84.3286 42.7342 85.7424 42.2582C85.8645 42.2178 85.9989 42.2232 86.1196 42.2744L86.1264 42.2771C86.2906 42.3472 86.4073 42.4956 86.4385 42.6709C86.4697 42.8462 86.41 43.0242 86.2784 43.1455C85.8577 43.5366 85.0599 44.3228 84.4371 45.1885C84.3408 45.322 84.2241 45.442 84.0898 45.5459L82.5158 46.7568C82.4819 46.7825 82.4426 46.7946 82.4032 46.7946L82.4019 46.7973Z" fill="#231F20"/>
<path d="M83.1577 48.0336C83.1075 48.0336 83.056 48.0133 83.0193 47.9715C82.9515 47.896 82.9596 47.78 83.0356 47.714L84.8796 46.0944C84.9976 45.9757 85.0587 45.8112 85.0464 45.6453V45.6373C85.0288 45.404 84.8741 45.2044 84.6502 45.1289L84.387 45.0399C84.2907 45.0075 84.2391 44.9037 84.2717 44.8079C84.3043 44.7122 84.4087 44.6609 84.5051 44.6933L84.7683 44.7823C85.1319 44.905 85.3843 45.23 85.4114 45.6103V45.6184C85.4318 45.8935 85.33 46.1618 85.1333 46.356C85.1306 46.3587 85.1279 46.3614 85.1251 46.3627L83.2771 47.9864C83.2419 48.0174 83.1984 48.0322 83.155 48.0322L83.1577 48.0336Z" fill="#231F20"/>
<path d="M83.6437 49.1111C83.5921 49.1111 83.5406 49.0895 83.5039 49.0477C83.4374 48.9708 83.4469 48.8562 83.5229 48.7901L84.7685 47.7262C84.9083 47.6062 84.9965 47.4403 85.0182 47.2582V47.2502C85.048 47.0061 84.9517 46.766 84.7617 46.6083L84.6966 46.5543C84.6192 46.4896 84.6084 46.375 84.6735 46.2968C84.7387 46.2199 84.854 46.2091 84.9327 46.2738L84.9978 46.3278C85.2827 46.5651 85.4279 46.9252 85.3845 47.2933V47.3014C85.3519 47.5751 85.2176 47.8246 85.0087 48.004L83.7631 49.0679C83.7278 49.0976 83.6858 49.1124 83.6437 49.1124V49.1111Z" fill="#231F20"/>
<path d="M79.7334 52.8467C79.6656 52.8467 79.6005 52.8089 79.5679 52.7442C79.5231 52.6538 79.5598 52.5446 79.6507 52.5001L80.6873 51.9917C82.0414 51.3269 83.2531 50.4369 84.2897 49.3446L84.3101 49.323C84.5299 49.0911 84.6411 48.7769 84.6167 48.46L84.5868 48.0783C84.5787 47.9772 84.6547 47.8895 84.7564 47.8815C84.8569 47.8734 84.9464 47.9489 84.9546 48.05L84.9844 48.4316C85.017 48.851 84.8691 49.2677 84.5787 49.5738L84.5584 49.5954C83.4919 50.7187 82.2449 51.6357 80.8515 52.3194L79.8148 52.8278C79.7891 52.8399 79.7606 52.8467 79.7334 52.8467Z" fill="#231F20"/>
<path d="M44.6533 34.2418C44.3656 33.9613 43.7171 33.4475 43.5488 34.3335C43.5488 34.3335 42.8623 33.8399 42.9939 34.8311C42.9939 34.8311 42.6221 34.6868 42.7279 35.1507C42.751 35.2518 42.8514 35.3192 42.9545 35.3004C43.291 35.241 44.0536 35.0536 44.6465 34.5263C44.7306 34.4508 44.7333 34.32 44.6519 34.2418H44.6533Z" fill="#231F20"/>
<path d="M46.2467 118.136L43.4787 130.399L42.2956 131.155L41.4204 130.399L42.2481 126.73L42.5941 125.196L44.187 118.136L45.3444 117.269L46.2467 118.136Z" fill="#1774FF"/>
</g>
<defs>
<linearGradient id="paint0_linear_48_899" x1="16.7707" y1="61.6124" x2="78.7876" y2="61.6124" gradientUnits="userSpaceOnUse">
<stop stop-color="#00A52E"/>
<stop offset="1" stop-color="#17A6FF"/>
</linearGradient>
<clipPath id="clip0_48_899">
<rect width="126" height="191" fill="white"/>
</clipPath>
</defs>
</svg>
