<svg width="176" height="103" viewBox="0 0 176 103" fill="none" xmlns="http://www.w3.org/2000/svg">
<path d="M109.636 50.741C107.57 50.6164 105.113 52.0407 102.674 53.5718C95.0011 58.4143 89.1259 69.043 79.2806 68.954C74.8119 68.9184 67.6371 65.785 60.3199 63.061L59.5543 70.7343C63.115 71.5711 66.6579 72.5503 70.1296 73.7965C76.1828 75.9686 82.2716 77.5709 88.4316 78.8527C93.3631 75.7727 100.431 69.1142 111.469 56.8298C113.107 55.0139 112.057 50.8834 109.618 50.741H109.636Z" fill="#E5A029"/>
<path d="M77.1263 71.3571C83.1795 73.5291 89.2683 75.1314 95.4283 76.4133C100.36 73.3333 107.428 66.6748 118.466 54.3904C120.104 52.5744 119.054 48.444 116.614 48.3016C114.549 48.1769 112.092 49.6012 109.653 51.1323C101.98 55.9749 96.1048 66.6035 86.2595 66.5145C76.4142 66.4255 53.5901 51.4172 44.813 58.592C44.813 58.592 44.7774 58.5564 44.724 58.4852L44.1008 64.7698C55.2992 65.9626 66.462 67.5293 77.1085 71.3393L77.1263 71.3571Z" fill="#F1AA3F"/>
<path d="M85.6363 69.5575C91.6895 71.7295 97.7961 73.3318 103.938 74.6137C108.87 71.5337 116.347 65.3381 127.386 53.0715C129.023 51.2555 127.848 48.3001 125.409 48.1399C123.344 48.0153 120.816 48.2467 118.163 49.3149C111.451 52.0388 104.615 64.7861 94.7873 64.6971C84.9598 64.6081 62.1179 49.5998 53.3408 56.7746C53.3408 56.7746 53.3052 56.739 53.2518 56.6678L52.6287 62.9524C63.8271 64.1452 74.9898 65.7119 85.6363 69.5219V69.5575Z" fill="#F6B455"/>
<path d="M0.517803 77.499C0.517803 77.499 2.06671 94.1274 20.1194 96.2994C20.1194 96.2994 36.0714 79.1547 39.6143 77.677C49.335 73.6534 64.646 78.8164 68.7942 79.1369C75.5773 79.671 90.7459 79.9736 98.5794 81.3089C99.5408 81.4691 100.52 81.2377 101.286 80.6324C103.778 78.6562 109.831 73.9917 115.582 70.5378C119.677 68.0809 123.113 62.8823 128.133 57.3098C129.771 55.4938 128.596 52.5385 126.157 52.3782C124.092 52.2536 121.564 52.4851 118.911 53.5533C112.199 56.2772 105.363 69.0245 95.5172 68.9355C85.6719 68.8465 62.8478 53.8381 54.0707 61.0129C54.0707 61.0129 43.5666 47.963 34.4156 53.482C25.2647 59.0011 14.5291 69.7366 0.5 77.4634L0.517803 77.499Z" fill="#FFC56E"/>
<path d="M60.213 59.1789C62.5096 56.5974 66.4798 53.0545 69.2038 50.9359C71.9455 48.8173 75.1501 47.1615 78.5862 46.7877C82.3427 46.3782 86.1171 47.4998 89.4819 49.2089C94.4313 51.7192 98.6151 55.4758 102.746 59.1967C89.8024 68.6682 60.1952 59.1967 60.1952 59.1967L60.213 59.1789Z" fill="#664A3B"/>
<path d="M106.395 14.6523C105.576 16.8421 104.205 18.8717 102.229 20.1001C98.9355 22.1475 94.7339 21.6134 90.8705 21.1149C87.025 20.6164 82.7165 20.3672 79.6899 22.7885C80.4377 17.8747 81.2923 12.6939 84.5325 8.91955C87.6837 5.23423 92.5619 3.54289 97.3332 2.67052C102.087 1.78035 107 1.5311 111.594 0C109.635 1.76255 108.692 4.37966 108.122 6.96116C107.57 9.54267 107.303 12.1954 106.395 14.6523Z" fill="#87BE00"/>
<path d="M91.2977 15.828C87.6658 17.3947 84.1763 19.3353 80.936 21.5785C86.3839 14.1723 97.9206 13.6203 103.653 6.42773C102.87 8.99144 100.858 11.021 98.5793 12.4275C96.3005 13.8518 93.7724 14.7598 91.2977 15.8102V15.828Z" fill="#ADD250"/>
<path d="M89.8024 10.291C87.6482 13.3176 85.5118 16.3442 83.3575 19.353C86.5266 17.3056 88.4493 13.7983 89.8024 10.291Z" fill="#ADD250"/>
<path d="M95.9267 7.19238C94.7873 10.0053 93.1316 12.6046 91.0486 14.8301C91.8675 14.2426 92.0456 14.9013 92.7933 14.207C93.2206 13.8153 95.9267 11.0023 95.9267 7.19238Z" fill="#ADD250"/>
<path d="M92.7755 14.2081C92.6331 14.2259 92.4551 14.2615 92.3839 14.4039C92.2414 14.6888 92.6509 14.9024 92.9714 14.9558C94.6271 15.1695 96.3184 15.3831 97.9742 15.1517C99.6299 14.9202 101.286 14.2081 102.318 12.8906C99.1492 13.3357 95.9624 13.7808 92.7933 14.2259L92.7755 14.2081Z" fill="#ADD250"/>
<path d="M99.2382 17.4486C95.1968 17.8225 91.0842 17.6267 87.0962 16.8789C87.0606 17.6979 87.9508 18.2142 88.7342 18.4456C92.1702 19.4426 95.82 18.4456 99.256 17.4486H99.2382Z" fill="#ADD250"/>
<path d="M78.7464 9.64967C76.3251 5.07417 71.4647 2.1366 66.4086 1.05059C61.3524 -0.0176236 56.0647 0.569891 51.0085 1.6381C53.4298 2.40365 55.1746 4.59348 56.1359 6.96134C57.0973 9.3114 57.4 11.8751 57.9163 14.3676C58.4326 16.8601 59.216 19.3882 60.8895 21.2932C63.2751 23.9993 67.1563 24.9785 70.7526 24.7114C74.3489 24.4444 77.7494 23.0735 81.0964 21.7204C80.9184 17.59 80.687 13.2994 78.7464 9.64967Z" fill="#87BE00"/>
<path d="M68.6519 12.4085C66.4443 9.66677 64.6105 6.19509 61.2812 5.05566C64.4681 7.90422 66.4265 11.8388 69.0436 15.2215C71.6429 18.6041 75.4172 21.6485 79.6901 21.3993C75.7021 18.7822 71.6607 16.1116 68.6697 12.4085H68.6519Z" fill="#ADD250"/>
<path d="M72.3193 8.35059C72.1235 10.22 71.9276 12.0893 72.1235 13.9587C72.3371 15.8281 72.978 17.6796 74.2599 19.0505C74.1887 17.7686 73.9394 16.5046 73.6902 15.2405C73.2273 12.9439 72.7644 10.6472 72.3193 8.36839V8.35059Z" fill="#ADD250"/>
<path d="M67.2987 12.8893C67.5301 13.37 68.3491 13.1029 68.5093 12.5866C68.6696 12.0703 67.4945 5.48302 66.5865 4.89551C66.818 7.56603 67.0672 10.2188 67.2987 12.8893Z" fill="#ADD250"/>
<path d="M67.9397 13.834C68.2246 13.7984 68.5272 13.7272 68.6697 13.4779C68.8299 13.2109 68.6697 12.837 68.3848 12.659C68.1178 12.4809 67.7795 12.3919 67.4768 12.4453C64.8775 12.8904 63.5601 12.3563 61.0142 11.9824C62.9725 13.4601 65.5006 14.1544 67.9397 13.834Z" fill="#ADD250"/>
<path d="M63.5601 16.8955C66.4798 18.5868 70.0761 19.0675 73.3342 18.213C73.2274 17.9103 73.1383 17.5898 73.0315 17.2872C69.8803 17.1626 66.7113 17.0201 63.5601 16.8955Z" fill="#ADD250"/>
<path d="M83.3218 49.6893C85.0487 49.1018 85.387 46.8408 85.4226 45.007C85.5116 40.4849 85.5828 35.9628 84.9953 31.4763C84.4078 27.0077 83.1081 22.5568 80.6334 18.7646C79.6008 19.7082 79.2092 21.1681 79.227 22.5746C79.2448 23.9811 79.6543 25.3163 79.9747 26.6694C81.6304 33.6306 81.2922 41.0368 79.0311 47.8199C80.2062 48.9594 81.7551 50.2056 83.3218 49.6715V49.6893Z" fill="#87BE00"/>
<path d="M68.8655 60.4782L56.5811 53.0719C34.6294 45.4876 36.6056 55.1193 33.4722 57.0777L48.2669 65.4631C48.2669 65.4631 59.1804 60.585 87.3633 67.0833C87.3633 67.0833 69.6489 60.5494 68.8655 60.4782Z" fill="#E9A82A"/>
<path d="M96.354 58.235C96.5499 57.4695 96.2116 56.6861 95.4282 56.6149C89.3572 56.063 66.4442 53.7664 52.9491 49.1019C30.9974 41.5176 32.5997 54.888 29.4663 56.8464L48.2668 65.4633C48.2668 65.4633 51.2222 56.2589 82.5385 65.3208C82.5385 65.3208 94.3066 66.3356 96.354 58.235Z" fill="#FFC56E"/>
<path d="M87.2921 56.1348C87.2921 56.1348 83.5355 57.7549 85.5473 59.9981C86.5799 61.1553 88.3603 61.8853 91.6539 61.2266C94.1642 60.7281 95.4105 59.0545 95.6063 57.9507C95.6953 57.4344 95.3393 56.9537 94.8052 56.9003L87.2921 56.1526V56.1348Z" fill="#FAECD0"/>
<path d="M126.905 54.4612C124.697 54.1407 120.834 55.5828 120.941 60.8705C120.958 62.0989 122.739 62.6152 123.967 61.6538C125.035 60.817 126.46 59.2503 127.955 57.7192C128.703 56.9537 129.166 54.7817 126.905 54.4612Z" fill="#FAECD0"/>
<path d="M152.268 62.7391C152.843 62.6714 155.156 62.7053 155.743 62.7391C154.987 58.7899 154.603 54.7843 154.457 51.1962C154.242 45.9833 153.543 37.6449 154.389 30.7959L154.017 32.1273C152.764 37.0807 152.674 42.5419 152.516 47.642C152.256 56.0481 152.347 57.639 152.256 62.7278L152.268 62.7391Z" fill="#87BE00"/>
<path d="M155.314 39.9117C154.502 40.5887 153.678 41.2995 153.069 42.1458C153.215 42.9131 153.294 43.669 153.317 44.4363C156.081 40.8369 159.218 37.5309 162.671 34.5859C159.997 36.0189 157.638 37.9709 155.314 39.923V39.9117Z" fill="#87BE00"/>
<path d="M153.757 54.2648C153.588 53.2042 153.904 52.1097 154.457 51.1957C155.021 50.2818 155.8 49.5258 156.623 48.8375C158.564 47.2014 160.854 45.8248 163.382 45.5879C159.568 47.6979 156.251 50.6993 153.757 54.2648Z" fill="#87BE00"/>
<path d="M153.712 53.5204C153.893 52.2905 154.152 51.6925 153.272 50.8237C152.392 49.9436 149.526 47.3822 148.386 46.8858C147.247 46.3893 146.965 46.8519 145.927 46.1523C148.725 48.2398 151.309 50.9929 153.712 53.5317V53.5204Z" fill="#87BE00"/>
<path d="M146.761 33.5596C149.018 36.7302 151.139 40.0137 153.091 43.3761C153.43 42.7442 153.441 41.977 153.261 41.2887C153.08 40.6004 152.708 39.9685 152.313 39.3705C150.835 37.1138 148.939 35.128 146.75 33.5596H146.761Z" fill="#87BE00"/>
<path d="M156.849 28.5286C158.372 27.4229 160.29 26.9264 161.768 25.7529C161.847 27.7952 161.012 29.8488 159.534 31.2592C158.056 32.6696 155.946 33.3918 153.915 33.1887C154.254 31.3382 155.326 29.6344 156.849 28.5286Z" fill="#87BE00"/>
<path d="M160.065 27.5C159.015 29.8921 156.962 31.8102 154.513 32.7016C156.623 31.2799 158.507 29.5084 160.065 27.5Z" fill="#ADD250"/>
<path d="M157.752 30.9539C158.35 30.7395 158.959 30.5026 159.41 30.0625C158.891 31.078 157.639 31.6535 156.533 31.4052C156.939 31.2585 157.345 31.1006 157.752 30.9539Z" fill="#ADD250"/>
<path d="M157.424 28.6514C157.142 29.8361 156.815 30.5131 156.352 31.4045C156.77 31.224 156.713 31.3142 156.916 30.9193C157.176 30.4003 157.526 29.6217 157.424 28.6627V28.6514Z" fill="#ADD250"/>
<path d="M153.87 32.9504C153.87 32.9504 155.642 28.9222 153.87 26.2819C152.855 24.77 151.004 23.9914 149.188 23.7432C149.379 25.0069 149.571 26.2706 149.763 27.5231C149.887 28.3355 150 29.1592 150.305 29.9152C151.128 31.9913 153.87 32.9391 153.87 32.9391V32.9504Z" fill="#87BE00"/>
<path d="M151.015 25.6377C152.008 27.5897 152.933 29.6433 153.486 31.7646C153.757 30.2075 152.9 28.8083 152.211 27.3866C151.737 26.4275 151.015 25.6941 151.015 25.6377Z" fill="#ADD250"/>
<path d="M153.362 26.8457C153.712 27.7032 153.644 29.407 153.328 30.2758C153.261 30.4451 153.182 30.0615 153.182 30.0615C153.396 29.0008 153.452 27.9176 153.362 26.8457Z" fill="#ADD250"/>
<path d="M153.227 30.0167C152.302 29.3058 151.557 28.7304 150.632 28.0195C150.914 28.595 152.335 29.8813 153.215 30.3326V30.0054L153.227 30.0167Z" fill="#ADD250"/>
<path d="M159.478 40.003C161.983 40.1497 164.341 38.57 165.785 36.5052C167.229 34.4403 167.895 31.958 168.459 29.5208C166.045 29.4079 163.495 29.3177 161.362 30.4686C159.669 31.3825 158.451 32.9848 157.638 34.7224C156.837 36.46 156.409 38.3444 155.991 40.2174C156.961 39.5178 158.282 39.9353 159.478 40.003Z" fill="#87BE00"/>
<path d="M161.904 35.398C161.87 35.5334 161.825 35.6575 161.779 35.7817C163.494 35.6914 164.837 35.2062 165.853 33.8184C164.521 34.7774 163.337 35.1159 161.904 35.398Z" fill="#ADD250"/>
<path d="M160.933 38.1854C160.369 38.129 158.53 38.0613 158.474 38.0726C158.891 37.6325 160.719 37.4746 161.836 37.5536C162.479 37.5987 163.483 37.5197 163.991 37.1699C163.449 37.9146 162.536 38.3547 160.922 38.1854H160.933Z" fill="#ADD250"/>
<path d="M158.462 38.2647C159.275 37.9375 159.771 37.0687 159.94 36.1999C160.121 35.3311 160.053 34.4397 160.098 33.5596C159.884 35.2182 159.32 36.8317 158.462 38.2647Z" fill="#ADD250"/>
<path d="M161.498 34.9138C161.396 35.3313 161.114 36.1211 160.9 36.4822C161.599 36.1098 161.949 35.5344 162.073 34.5866C162.197 33.729 162.31 32.9956 162.231 31.7432C161.994 32.9731 161.791 33.729 161.498 34.9138Z" fill="#ADD250"/>
<path d="M144.471 37.5655C146.209 38.4004 148.228 38.3214 150.158 38.2199C150.632 35.8617 151.083 33.3229 150.056 31.1452C149.233 29.3963 147.54 28.1777 145.735 27.4556C143.941 26.7334 142 26.4175 140.116 26C140.059 28.1777 140.025 30.4005 140.612 32.5105C141.199 34.6092 142.496 36.6176 144.471 37.5655Z" fill="#87BE00"/>
<path d="M148.036 34.8791C148.003 35.1838 148.003 35.5674 148.273 35.7254C148.736 34.2359 148.792 32.6111 148.42 31.0879C148.296 32.3516 148.172 33.6154 148.048 34.8791H148.036Z" fill="#ADD250"/>
<path d="M147.709 35.3078C146.096 35.4657 144.46 35.3078 142.902 34.8564C143.455 35.4206 144.414 35.714 144.945 35.8381C145.475 35.9622 147.653 35.9961 148.522 35.9622C148.522 35.9396 148.51 35.9171 148.499 35.8832C148.228 35.7478 147.924 35.5222 147.709 35.2965V35.3078Z" fill="#ADD250"/>
<path d="M146.525 33.5371C145.069 33.571 143.614 33.3679 142.237 32.9053C142.767 33.492 143.715 33.8192 144.245 33.9659C144.652 34.0787 145.994 34.169 147.01 34.2029C146.818 34.011 146.66 33.7741 146.536 33.5371H146.525Z" fill="#ADD250"/>
<path d="M149.503 37.0466C148.206 35.0269 144.494 30.4233 142.62 28.46C143.704 30.931 147.269 35.3992 149.503 37.0466Z" fill="#ADD250"/>
<path d="M146.694 29.6777C146.321 30.4112 146.446 31.878 146.446 32.7017C146.446 33.7623 146.852 34.1459 147.021 34.3265C146.908 32.7807 146.795 31.2236 146.682 29.6777H146.694Z" fill="#ADD250"/>
<path d="M145.565 32.2965C145.464 30.9312 145.374 29.5772 145.272 28.2119C145.08 29.0017 145.046 29.848 145.046 30.6717C145.046 31.0892 145.103 31.5292 145.227 31.9241C145.419 32.037 145.419 32.1385 145.565 32.2965Z" fill="#ADD250"/>
<path d="M145.565 32.319C145.565 32.319 145.543 32.2965 145.532 32.2739C145.532 32.2965 145.543 32.3078 145.554 32.3303C145.543 32.2965 145.52 32.2626 145.498 32.2288C145.464 32.1724 145.441 32.1159 145.407 32.0595C144.144 31.6082 142.88 31.1681 141.616 30.7168C142.756 31.8113 144.245 32.5109 145.814 32.7027C145.723 32.5786 145.644 32.4544 145.565 32.3078V32.319Z" fill="#ADD250"/>
<path d="M169.678 39.5291C171.641 39.6533 173.695 40.3303 175.5 39.5404C173.334 42.2259 173.198 46.2653 170.66 48.5897C169.125 50.0001 166.902 50.5191 164.837 50.2145C162.773 49.9098 160.877 48.8605 159.32 47.4726C159.794 45.1483 161.136 43.0044 163.021 41.5601C164.905 40.1159 167.32 39.3825 169.689 39.5179L169.678 39.5291Z" fill="#87BE00"/>
<path d="M172.6 40.9502C170.66 43.331 166.474 45.8246 163.134 46.9417C162.254 47.235 161.317 47.2689 160.414 47.0545H160.403C164.567 46.1744 169.103 43.3536 172.6 40.9502Z" fill="#ADD250"/>
<path d="M165.819 30.9316C164.77 33.3801 161.859 36.4492 159.343 38.1643C158.677 38.6156 157.898 38.8638 157.097 38.909C160.358 37.1939 163.472 33.7638 165.83 30.9316H165.819Z" fill="#ADD250"/>
<path d="M166.327 44.9783C167.218 43.8612 167.985 42.6539 168.617 41.3789C168.629 42.1575 168.279 43.1278 167.906 43.8161C167.523 44.4931 167.094 44.8655 166.327 44.9783Z" fill="#ADD250"/>
<path d="M162.445 46.8069C163.246 46.6828 163.788 45.893 163.991 45.1031C164.194 44.3133 164.409 43.6701 164.285 42.6885C163.946 44.1553 163.314 45.5657 162.457 46.8069H162.445Z" fill="#ADD250"/>
<path d="M164.939 45.8244C165.74 45.5536 166.158 44.651 166.214 43.816C166.282 42.981 166.383 42.2702 166.09 41.2998C166 42.8682 165.605 44.4027 164.939 45.8244Z" fill="#ADD250"/>
<path d="M171.912 44.1998C170.242 44.4254 169.159 44.1998 167.839 44.527C167.703 44.5608 167.568 44.5947 167.478 44.6849C167.376 44.7752 167.117 44.9445 167.207 45.046C168.742 45.0686 170.49 44.967 171.923 44.1885L171.912 44.1998Z" fill="#ADD250"/>
<path d="M165.221 45.4414C165.142 45.5768 165.041 45.7122 164.939 45.8363C166.53 46.6826 167.737 47.1565 170.016 47.0436C168.256 46.5133 166.801 46.1974 165.221 45.4414Z" fill="#ADD250"/>
<path d="M163.021 46.6022C162.908 46.5909 162.772 46.6022 162.739 46.7037C162.705 46.794 162.784 46.8955 162.863 46.9632C164.183 48.1705 165.988 48.8024 167.771 48.7009C167.083 48.4752 166.101 48.2382 165.379 47.7418C164.657 47.2453 163.912 46.715 163.032 46.6134L163.021 46.6022Z" fill="#ADD250"/>
<path d="M139.337 47.1122C140.714 48.1277 142.429 48.6355 144.132 48.7596C145.836 48.8837 147.551 48.6581 149.233 48.297C149.187 46.5932 149.097 44.8781 148.589 43.2533C148.082 41.6285 147.111 40.094 145.656 39.2252C142.587 37.386 138.468 38.9431 135.173 37.5439C135.32 39.3267 135.591 41.1321 136.234 42.802C136.866 44.4832 137.893 46.0516 139.337 47.1122Z" fill="#87BE00"/>
<path d="M141.74 43.5106C143.196 44.5825 145.385 46.1622 147.089 47.1777C147.45 47.3921 147.856 47.5501 148.273 47.629C145.17 44.8195 142.508 43.3639 138.084 39.6855C138.908 41.2652 140.307 42.45 141.74 43.5106Z" fill="#ADD250"/>
<path d="M146.806 46.6381C146.378 44.9456 145.78 43.0839 145.723 41.335C145.441 43.0162 145.723 44.7313 146.028 46.4125C146.186 46.435 146.671 46.593 146.806 46.6381Z" fill="#ADD250"/>
<path d="M142.993 40.1152C142.699 41.1872 142.857 42.4283 143.275 44.2562C143.557 44.4255 143.941 44.448 143.941 44.448C143.275 42.8232 143.297 41.7626 142.993 40.1152Z" fill="#ADD250"/>
<path d="M140.488 39.4492C140.307 40.3519 140.77 42.1008 140.815 42.2362C140.973 42.6537 140.996 42.3378 141.391 42.5409C141.086 41.5141 140.793 40.476 140.488 39.4492Z" fill="#ADD250"/>
<path d="M140.759 42.2485C139.36 42.3726 138.446 42.508 136.911 42.1582C138.141 42.9819 139.732 43.027 141.199 42.7901C141.221 42.7901 141.233 42.7788 141.255 42.7675C141.063 42.6095 140.905 42.429 140.77 42.2372L140.759 42.2485Z" fill="#ADD250"/>
<path d="M142.903 44.4373C141.503 44.6065 140.093 44.4373 138.694 44.2793C139.484 44.7983 140.42 45.0466 141.368 45.1481C142.305 45.2384 143.252 45.182 144.2 45.1255C144.302 44.8435 144.065 44.5501 143.783 44.4485C143.501 44.3583 143.196 44.4034 142.914 44.4485L142.903 44.4373Z" fill="#ADD250"/>
<path d="M146.558 46.7945C146.66 46.7606 146.761 46.7268 146.807 46.6365C146.863 46.5124 146.784 46.3657 146.66 46.298C146.536 46.2303 146.389 46.219 146.265 46.2529C144.065 46.7155 142.417 46.5688 140.567 46.5237C142.463 47.2796 144.606 47.3699 146.558 46.7945Z" fill="#ADD250"/>
<path d="M138.288 67.6354C141.605 62.4676 147.653 59.1729 153.802 59.1729C159.94 59.1729 165.988 62.5014 169.294 67.6805C164.928 70.964 159.331 72.4421 153.87 72.2503C148.409 72.0697 143.072 70.2983 138.299 67.6354H138.288Z" fill="#664A3B"/>
<path d="M154.84 66.6426H151.997H136.516L141.21 100.91H151.997H154.84H165.627L170.321 66.6426H154.84Z" fill="#EC7832"/>
<path d="M166.079 102.726H140.748L139.427 97.333H167.41L166.079 102.726Z" fill="#CD5A24"/>
<path d="M171.641 72.8376H135.196L133.289 65.0859H173.548L171.641 72.8376Z" fill="#CD5A24"/>
</svg>
