<svg width="145" height="208" viewBox="0 0 145 208" fill="none" xmlns="http://www.w3.org/2000/svg">
<path d="M123.58 146.89C123.58 155.343 130.439 162.194 138.903 162.194C140.711 162.194 142.447 161.88 144.058 161.307V187.044H118.29C118.866 188.653 119.178 190.386 119.178 192.193C119.178 200.646 112.318 207.497 103.855 207.497C95.3919 207.497 88.5321 200.646 88.5321 192.193C88.5321 190.386 88.8467 188.653 89.42 187.044H63.6526V161.307C65.2635 161.883 66.9988 162.194 68.8076 162.194C77.2707 162.194 84.1305 155.343 84.1305 146.89C84.1305 138.437 77.2707 131.585 68.8076 131.585C66.9988 131.585 65.2635 131.899 63.6526 132.472V106.735H144.06V132.472C142.449 131.897 140.714 131.585 138.905 131.585C130.442 131.585 123.582 138.437 123.582 146.89H123.58Z" fill="#17A6FF"/>
<path d="M123.58 146.89C123.58 155.343 130.439 162.194 138.903 162.194C140.711 162.194 142.447 161.88 144.058 161.307V187.044H118.29C118.866 188.653 119.178 190.386 119.178 192.193C119.178 200.646 112.318 207.497 103.855 207.497C95.3919 207.497 88.5321 200.646 88.5321 192.193C88.5321 190.386 88.8467 188.653 89.42 187.044H63.6526V161.307C65.2635 161.883 66.9988 162.194 68.8076 162.194C77.2707 162.194 84.1305 155.343 84.1305 146.89C84.1305 138.437 77.2707 131.585 68.8076 131.585C66.9988 131.585 65.2635 131.899 63.6526 132.472V106.735H144.06V132.472C142.449 131.897 140.714 131.585 138.905 131.585C130.442 131.585 123.582 138.437 123.582 146.89H123.58Z" fill="#15A33D" fill-opacity="0.61"/>
<path d="M7.569 155.025C5.34666 155.025 3.17252 154.073 1.68335 152.36L1.64276 152.314C0.785283 151.328 0.704103 149.907 1.44488 148.855C2.14761 147.857 3.13701 146.985 4.38009 146.268C5.57752 145.579 6.90687 145.103 8.33261 144.852C12.2268 144.17 15.5654 142.49 17.2118 141.548C17.9704 141.114 18.8329 140.884 19.7056 140.884H19.7183C19.9085 140.884 20.0608 141.038 20.0608 141.226C20.0608 141.413 19.906 141.568 19.7183 141.568H19.7056C18.9521 141.568 18.2088 141.766 17.5543 142.141C15.8698 143.106 12.45 144.826 8.45185 145.526C7.10728 145.761 5.85151 146.21 4.72512 146.861C3.56829 147.53 2.65245 148.333 2.00808 149.251C1.44996 150.044 1.51338 151.118 2.16283 151.866L2.20342 151.911C3.96404 153.936 6.77748 154.795 9.37274 154.106C13.5155 153.001 19.0891 150.994 22.1233 147.71C22.4734 147.33 22.7499 146.881 22.9478 146.375L23.2827 145.513C23.3511 145.336 23.5516 145.25 23.7266 145.318C23.9042 145.386 23.9904 145.587 23.922 145.761L23.5871 146.623C23.3588 147.211 23.0366 147.733 22.6281 148.174C19.4849 151.579 13.7819 153.639 9.55033 154.767C8.89834 154.942 8.23114 155.025 7.57154 155.025H7.569Z" fill="#231F20"/>
<path d="M42.8803 178.308C41.8858 178.308 40.9117 177.938 40.1633 177.251C39.184 176.354 38.7248 175.087 38.9024 173.775C39.3971 170.123 41.1045 166.984 43.8418 164.691C45.4147 163.373 46.6299 162.286 47.4569 161.46C47.8628 161.052 48.2408 160.604 48.5833 160.125L48.8116 159.805C48.9207 159.651 49.1363 159.615 49.2911 159.724C49.4458 159.833 49.4814 160.049 49.3723 160.203L49.144 160.522C48.7812 161.032 48.3778 161.511 47.944 161.944C47.1043 162.785 45.8739 163.885 44.2858 165.218C41.6448 167.43 40.0643 170.341 39.5849 173.868C39.4377 174.955 39.8183 176.004 40.6275 176.749C41.4419 177.497 42.5277 177.786 43.6059 177.545L43.6921 177.525C46.2519 176.952 48.3651 175.27 49.494 172.905L50.3084 171.198C50.9325 169.89 51.7697 168.641 52.7996 167.491C53.9844 166.163 55.0042 164.534 55.8262 162.648C55.9835 162.289 56.09 161.908 56.1433 161.518C56.3361 160.127 55.7628 158.678 54.644 157.74L54.54 157.654C54.3954 157.532 54.3751 157.315 54.4994 157.17C54.6211 157.026 54.8393 157.005 54.9839 157.13L55.0879 157.216C56.3843 158.305 57.049 159.99 56.8257 161.615C56.7623 162.066 56.638 162.506 56.4579 162.925C55.6055 164.878 54.5476 166.571 53.3146 167.952C52.3303 169.054 51.5286 170.245 50.9325 171.497L50.1181 173.204C48.8979 175.761 46.6121 177.58 43.8469 178.199L43.7606 178.219C43.4689 178.285 43.1771 178.315 42.8854 178.315L42.8803 178.308Z" fill="#231F20"/>
<path d="M46.191 52.5962C46.191 52.5962 34.8332 46.5757 37.8547 33.8633L39.9882 27.8707C39.9882 27.8707 42.1142 22.1923 42.7662 14.5982C42.7662 14.5982 43.408 6.71283 53.4922 1.95929C53.4922 1.95929 61.3415 -2.73091 71.8113 3.67725C71.8113 3.67725 83.4557 10.392 82.3243 26.472C82.3243 26.472 81.4617 32.196 79.3941 34.8236L46.191 52.5962Z" fill="#231F20"/>
<path d="M57.3838 35.708C54.644 37.6793 52.4749 40.3602 50.7295 43.2462C48.9841 46.1323 47.6345 49.2388 46.2899 52.3327C44.2883 50.3664 43.4308 47.4575 43.4334 44.6525C43.4334 41.8475 44.2122 39.1034 45.0823 36.4377C45.9525 33.7696 46.9242 31.1166 47.3377 28.342C47.8806 24.7008 47.4721 20.8316 48.9765 17.4717C49.8314 19.6635 50.1359 22.02 50.486 24.3461C50.8361 26.6722 51.247 29.0287 52.2923 31.1343C53.3375 33.24 55.1133 35.0973 57.3864 35.713L57.3838 35.708Z" fill="#231F20"/>
<path d="M45.2853 54.545C45.2853 54.545 51.8356 36.8509 58.4316 36.073L79.3941 34.8213L82.1619 35.3053C82.1619 35.3053 86.1093 36.1414 88.8213 40.8772L99.7275 59.9624C99.7275 59.9624 103.665 67.3588 104.195 73.2272C104.195 73.2272 105.661 80.8263 103.688 83.274C103.688 83.274 100.392 87.8451 94.5649 83.5578L92.5455 82.1236H76.9764L45.2853 54.545Z" fill="#F2F2F2"/>
<path d="M49.2175 17.6519C49.2175 17.6519 50.8615 23.6294 50.9528 26.4698C50.9528 26.4698 51.653 35.0369 58.4316 36.0732C58.4316 36.0732 62.0873 45.446 73.7292 40.2794C73.7292 40.2794 78.0445 37.2844 79.3941 34.8215L74.3558 34.0233C74.3558 34.0233 70.3856 34.3882 69.0232 26.7688C69.0232 26.7688 73.9956 26.1202 73.0544 21.4097C73.0544 21.4097 71.0223 16.2583 67.8436 21.3767C67.8436 21.3767 59.1039 23.7687 49.2175 17.6494V17.6519Z" fill="white"/>
<path d="M61.2247 30.4125C60.971 30.5367 60.6514 30.6481 60.4205 30.486C60.2556 30.372 60.1947 30.1464 60.2303 29.9488C60.2632 29.7512 60.3774 29.5763 60.4992 29.4167C61.207 28.4994 62.3105 27.9648 63.4344 27.6835C63.5866 27.6455 63.7464 27.61 63.9037 27.6379C64.0585 27.6658 64.2132 27.7671 64.2513 27.9192C64.3071 28.1345 64.1346 28.3347 63.9697 28.4842C63.1452 29.2469 62.2319 29.9159 61.2247 30.415V30.4125Z" fill="#DEEBFC"/>
<path d="M52.1172 28.7375C52.7311 29.1353 53.5886 29.0466 54.1772 28.6108C54.7657 28.1775 55.1006 27.4528 55.1666 26.7256C54.2102 26.9815 53.269 27.2957 52.3506 27.6707C52.0918 27.7771 51.7976 27.9393 51.7773 28.2155C51.762 28.4309 51.932 28.6184 52.1147 28.7349L52.1172 28.7375Z" fill="#DEEBFC"/>
<path d="M63.8048 25.7198C63.7465 25.4487 63.4624 25.2916 63.196 25.2131C62.4907 25.0104 61.7195 25.1117 61.0421 25.3904C60.3622 25.6692 59.7635 26.1151 59.2156 26.6016C58.9923 26.7993 58.7589 27.0881 58.8807 27.3593C59.0025 27.6329 59.3805 27.6481 59.6773 27.6152C60.9711 27.4783 62.308 27.2452 63.3634 26.4851C63.6171 26.3026 63.8733 26.0264 63.8099 25.7198H63.8048Z" fill="#DEEBFC"/>
<path d="M64.7333 40.3761C65.3574 39.9454 65.6136 39.1193 65.5527 38.3642C65.4919 37.6091 65.1671 36.9022 64.8348 36.2206C64.6369 35.8177 64.3883 35.3793 63.957 35.2577C63.7135 35.1893 63.1376 35.5973 62.889 35.6454C61.3339 35.9495 60.0958 35.8912 58.5407 36.1952C59.1267 37.8676 60.3419 39.3094 61.8894 40.1734C62.7647 40.6625 63.9088 40.9488 64.7333 40.3787V40.3761Z" fill="#DEEBFC"/>
<path d="M66.4051 28.0305C66.9328 29.3329 67.4604 30.6429 67.7649 32.0163C67.9678 32.9386 68.0845 33.9218 68.6325 34.6895C69.4468 35.8272 70.9614 36.1718 72.3364 36.4303C73.9879 36.7419 75.7029 37.0511 77.3367 36.6507C78.1992 36.4379 79.1379 35.8475 79.1353 34.9606C76.6745 33.7393 73.4932 34.203 71.3495 32.4876C69.764 31.2206 69.183 29.0795 68.9851 27.0626C70.6341 26.9283 72.1639 25.8134 72.7981 24.288C73.4298 22.76 73.1355 20.8926 72.0624 19.6332C71.6819 19.1873 71.144 18.792 70.5605 18.8553C69.7614 18.9415 69.3149 19.7802 68.8126 20.4061C67.6761 21.8276 65.5983 22.4104 63.8859 21.7921C64.7256 23.8699 65.5679 25.9502 66.4076 28.028L66.4051 28.0305Z" fill="#DEEBFC"/>
<path d="M77.1997 58.3941C77.1997 58.3941 75.7461 65.4662 79.9218 72.1176C79.9218 72.1176 83.8718 77.1473 84.8333 73.9065C84.8333 73.9065 85.3229 70.4022 85.0515 69.2949C85.0388 69.2417 85.0236 69.196 85.0083 69.153C84.6456 68.2458 77.2022 58.3916 77.2022 58.3916L77.1997 58.3941Z" fill="#231F20"/>
<path d="M16.9937 134.902C16.9937 134.902 28.1738 112.933 32.7073 98.6013C32.7073 98.6013 38.1464 83.2257 41.2745 80.0305L41.4419 79.8126C44.1361 76.3032 48.7837 74.9222 52.962 76.3893L69.8122 82.3034L92.5455 82.1235L95.0165 83.8744C95.0165 83.8744 101.488 93.0546 101.108 99.7212C101.108 99.7212 101.815 108.945 83.2934 108.945H57.9598C57.9598 108.945 58.7893 121.064 59.1344 125.881C59.9563 130.206 67.3032 151.227 67.3032 151.227C67.3032 151.227 58.8857 157.027 42.6241 154.765C42.6241 154.765 45.5669 136.723 42.0254 120.942C42.0254 120.942 38.6132 145.197 35.5537 152.251C35.5537 152.251 23.0214 147.363 16.9962 134.902H16.9937Z" fill="url(#paint0_linear_193_3520)"/>
<path d="M56.3285 155.188C56.1509 155.188 55.9987 155.051 55.986 154.871C54.7784 138.794 52.8631 122.572 50.2932 106.657C50.0344 105.058 49.5473 103.165 48.0658 102.704C47.9617 102.671 47.8501 102.645 47.7334 102.62C47.462 102.559 47.1804 102.493 46.9165 102.329C46.5791 102.118 46.3584 101.713 46.3787 101.346C46.3965 101.041 46.5715 100.788 46.8607 100.651C47.0941 100.54 47.3681 100.522 47.637 100.598L50.798 101.505C50.9096 101.538 50.968 101.465 50.9908 101.434C51.0111 101.401 51.0517 101.318 50.9756 101.229C50.42 100.578 49.938 99.8607 49.5422 99.1005C49.3621 98.7533 49.4306 98.3403 49.7173 98.0743C50.0014 97.8082 50.4175 97.7651 50.7498 97.9679C51.4525 98.3935 52.206 98.7204 52.9899 98.9434C55.0803 99.5363 57.2824 99.3742 59.7381 99.1233C59.9284 99.103 60.0958 99.2424 60.1161 99.4299C60.1364 99.6174 59.9969 99.7872 59.8091 99.8074C57.2824 100.066 55.0118 100.228 52.8047 99.6047C51.9625 99.3666 51.1506 99.0143 50.3972 98.5557C50.2982 98.4949 50.2247 98.543 50.1892 98.576C50.1612 98.6039 50.1004 98.6773 50.1562 98.7838C50.5266 99.4983 50.9807 100.17 51.5033 100.783C51.7519 101.074 51.7798 101.485 51.5718 101.804C51.3663 102.123 50.9807 102.268 50.6128 102.164L47.4518 101.257C47.3453 101.226 47.2438 101.231 47.1626 101.269C47.0814 101.308 47.0738 101.348 47.0713 101.384C47.0637 101.503 47.1626 101.667 47.2869 101.746C47.4518 101.85 47.6649 101.898 47.8907 101.949C48.015 101.976 48.1444 102.007 48.2738 102.047C50.1384 102.625 50.7092 104.89 50.9756 106.545C53.5506 122.481 55.4685 138.723 56.676 154.818C56.6913 155.008 56.5492 155.173 56.3589 155.185C56.3513 155.185 56.3412 155.185 56.3336 155.185L56.3285 155.188Z" fill="#ADD250"/>
<path d="M30.7995 150.275C30.764 150.275 30.726 150.27 30.6905 150.257C30.5103 150.196 30.4139 150.001 30.4748 149.821C34.4197 138.142 37.8547 126.532 40.6783 115.312C40.724 115.127 40.9117 115.016 41.0944 115.064C41.2796 115.11 41.3912 115.297 41.343 115.479C38.5143 126.717 35.0768 138.345 31.1243 150.042C31.0761 150.183 30.9416 150.275 30.7995 150.275Z" fill="#ADD250"/>
<path d="M93.1417 98.2956C93.0656 98.2956 92.9894 98.288 92.9159 98.2703C78.2525 95.0776 64.1244 89.8376 50.9299 82.6946C50.7092 82.5755 50.557 82.725 50.5164 82.7731C50.4758 82.8213 50.3541 82.9936 50.5088 83.1912L50.5266 83.214C50.7168 83.4547 50.8082 83.7689 50.7726 84.0781C50.7371 84.3771 50.59 84.6431 50.3591 84.8256C49.6818 85.3602 48.9664 84.7419 48.733 84.5392L46.9343 82.9784C46.7592 82.8263 46.5867 82.9175 46.5385 82.948C46.4878 82.9809 46.3305 83.1025 46.3965 83.328C46.5918 83.9919 46.9216 84.6178 47.3554 85.1398C47.5482 85.3703 47.6294 85.6719 47.5787 85.9633C47.2489 87.9093 46.8962 89.8832 46.5335 91.8343C46.4979 92.0218 46.3178 92.1434 46.1326 92.1079C45.9449 92.0724 45.8231 91.8951 45.8586 91.7076C46.2214 89.7615 46.5715 87.7902 46.9013 85.8467C46.9165 85.7504 46.8886 85.6516 46.8252 85.5756C46.333 84.9827 45.9576 84.2732 45.7369 83.5206C45.6075 83.0797 45.78 82.616 46.1656 82.3702C46.5538 82.1219 47.0332 82.1574 47.3833 82.4589L49.182 84.0198C49.6589 84.4353 49.8188 84.3745 49.9304 84.2858C50.0166 84.2174 50.0725 84.1161 50.0877 83.9995C50.1029 83.8728 50.0648 83.7411 49.9862 83.6397L49.9659 83.6144C49.6589 83.2267 49.6691 82.7098 49.9887 82.3297C50.3084 81.9496 50.8183 81.8533 51.2547 82.0915C64.3933 89.2041 78.4605 94.4213 93.0605 97.5988C93.1823 97.6242 93.304 97.5912 93.3954 97.5076C93.4867 97.424 93.5273 97.3049 93.507 97.1833L93.337 96.0531C93.2634 95.5742 93.5146 95.1207 93.9585 94.9281C94.4025 94.733 94.9048 94.8572 95.2093 95.2372L95.8638 96.0557C96.0134 96.2432 96.2164 96.195 96.2747 96.1748C96.3306 96.157 96.5183 96.076 96.5259 95.8428V95.8251C96.6857 90.4001 92.7966 82.725 92.756 82.649C92.6698 82.4792 92.7358 82.2739 92.9057 82.1878C93.0757 82.1016 93.2812 82.1675 93.3675 82.3373C93.5324 82.6566 97.3758 90.243 97.2109 95.8504C97.2109 95.8504 97.2109 95.8631 97.2109 95.8656C97.1956 96.3091 96.9141 96.6866 96.4904 96.826C96.0642 96.9679 95.6075 96.8336 95.3285 96.4839L94.674 95.6655C94.5091 95.4602 94.296 95.5312 94.2351 95.5565C94.1742 95.5819 93.9763 95.6908 94.0169 95.9518L94.1869 97.0819C94.2376 97.4265 94.1184 97.7736 93.8647 98.0093C93.6668 98.1943 93.4055 98.2956 93.1391 98.2956H93.1417Z" fill="#ADD250"/>
<path d="M48.3651 155.451L49.5144 163.661L54.7632 162.979V155.221L48.3651 155.451Z" fill="#DEEBFC"/>
<path d="M64.3071 48.8816C64.3071 48.8816 63.3633 51.8513 65.71 50.0726L68.663 47.3259L70.383 49.6241C70.383 49.6241 68.3052 51.0887 70.2105 52.8345L68.4219 52.7078C68.4219 52.7078 65.1595 51.6968 65.0047 53.5034C65.0047 53.5034 65.0961 54.2079 65.7607 54.5474C65.7607 54.5474 68.219 54.2611 69.3809 54.9401C69.3809 54.9401 71.2709 55.8751 71.8138 56.7113C71.8138 56.7113 74.8454 58.6345 76.2052 57.3651L77.2022 58.3938L85.0083 69.1552C85.0083 69.1552 83.6181 59.4074 82.1644 54.9401L78.5899 48.3318C78.5899 48.3318 78.047 47.7515 76.8952 47.7515L72.5115 47.0142L69.1475 44.6678C69.1475 44.6678 68.0871 43.7607 66.9835 44.6678L64.3096 48.8842L64.3071 48.8816Z" fill="white"/>
<path d="M63.8479 49.393C63.7236 49.7097 64.132 50.0239 64.4644 49.9555C64.7967 49.8846 65.0301 49.5932 65.2356 49.3221C65.8013 48.5695 66.3671 47.8169 66.9328 47.0644C67.2017 46.7046 67.4985 46.327 67.9247 46.1851C68.5691 45.9697 69.2439 46.365 69.8097 46.7426C70.1826 46.9909 70.5631 47.2493 70.8295 47.6092C71.0959 47.969 71.2303 48.4605 71.0578 48.8736C70.8549 49.3575 70.317 49.5932 69.9111 49.9251C69.5052 50.2596 69.2312 50.9387 69.6371 51.2731C69.7944 51.4024 70.005 51.4353 70.2079 51.4632C71.5804 51.6507 72.9529 51.8382 74.3254 52.0257C75.0788 52.1296 75.8678 52.2284 76.5832 51.97C76.8547 51.8711 77.1236 51.7216 77.4128 51.7368C77.8567 51.7622 78.1891 52.1828 78.3058 52.6136C78.4225 53.0443 78.387 53.4979 78.4453 53.9413C78.7015 55.8949 80.7158 57.3164 80.8148 59.2827C80.8554 60.0631 80.5789 60.8284 80.5738 61.6088C80.5636 63.0658 81.4693 64.3505 82.3395 65.5236C83.0194 66.4409 83.6993 67.3582 84.3792 68.2729C84.9779 67.5127 84.8079 66.4966 84.6049 65.5515C83.8565 62.0345 83.1082 58.52 82.3572 55.003C81.9031 52.8745 80.0994 51.1414 79.0237 49.2486C78.7573 48.7798 78.4808 48.2984 78.0546 47.969C77.6284 47.6396 77.0069 47.5002 76.5452 47.7739C75.2691 47.2265 73.7165 47.3076 72.4557 46.7299C71.7022 46.3853 71.0705 45.8228 70.4337 45.2932C69.8832 44.8346 69.2921 44.3785 68.5894 44.2264C67.8892 44.0744 67.0495 44.3177 66.7324 44.9613C65.9637 46.5145 64.4897 47.7865 63.853 49.3955L63.8479 49.393Z" fill="#DEEBFC"/>
<path d="M20.2662 140.249L17.2676 145.4L20.7787 148.241L24.272 144.871L20.2662 140.249Z" fill="#DEEBFC"/>
<path d="M54.7632 157.388C54.7632 157.388 59.0887 160.791 54.0225 166.52C54.0225 166.52 50.6509 170.229 49.8036 173.052C49.8036 173.052 46.1453 179.037 41.693 177.775C41.693 177.775 37.2331 176.169 40.0517 170.582C40.0517 170.582 41.4444 166.119 46.6527 162.699L49.0856 160.005C49.0856 160.005 48.9841 162.303 51.5566 162.334C51.5566 162.334 54.7556 161.125 54.7607 157.39L54.7632 157.388Z" fill="#231F20"/>
<path d="M19.7183 141.23C19.7183 141.23 17.9653 141.648 16.2123 142.482C16.2123 142.482 12.0517 144.712 8.39351 145.193C8.39351 145.193 3.25625 145.935 1.4525 149.569C1.4525 149.569 0.107942 151.898 4.4207 154.001C4.4207 154.001 6.48828 156.03 14.1472 152.937C14.1472 152.937 22.7601 149.592 23.5998 145.636C23.5998 145.636 20.7813 147.588 18.9775 144.59C18.9775 144.59 18.5386 142.862 19.7183 141.228V141.23Z" fill="#231F20"/>
<path d="M72.8996 54.7884C71.7174 54.7884 70.4642 53.6608 69.6042 52.6903C69.2591 52.3001 69.0663 51.7959 69.0663 51.2764V51.2612C69.0663 50.5923 69.3835 49.9563 69.9137 49.5584C70.8041 48.892 71.3496 48.1395 71.3546 48.1319C71.4663 47.9773 71.6794 47.9418 71.8341 48.0533C71.9889 48.1623 72.0244 48.3777 71.9128 48.5322C71.8874 48.5652 71.3039 49.376 70.3247 50.1083C69.967 50.3769 69.7513 50.8076 69.7513 51.2612V51.2764C69.7513 51.6312 69.8807 51.9707 70.1166 52.2368C71.2227 53.486 72.2755 54.165 72.9986 54.0966C73.3613 54.0637 73.6607 53.8432 73.9119 53.4226C74.0108 53.2604 74.2214 53.2072 74.3837 53.3035C74.5461 53.4023 74.5994 53.6126 74.503 53.7748C74.1351 54.388 73.6506 54.725 73.062 54.7808C73.0062 54.7858 72.9529 54.7884 72.8971 54.7884H72.8996Z" fill="#231F20"/>
<path d="M75.505 54.3654C74.1681 54.3654 73.0798 53.139 72.6231 52.5309C72.4125 52.2521 72.2679 51.9202 72.2071 51.5705V51.5553C72.0904 50.9142 72.2578 50.2504 72.6688 49.7411L73.4248 48.7985C73.544 48.6515 73.7596 48.6262 73.9068 48.7453C74.0539 48.8643 74.0793 49.0797 73.9601 49.2267L73.2041 50.1693C72.9174 50.5266 72.8007 50.9877 72.8793 51.4362V51.4514C72.925 51.6921 73.024 51.9227 73.1711 52.1178C73.6252 52.7209 74.815 54.0664 76.0758 53.5672C76.2534 53.4988 76.4513 53.5824 76.5223 53.7598C76.5934 53.9346 76.5071 54.1348 76.3295 54.2057C76.0479 54.3172 75.7714 54.3654 75.505 54.3679V54.3654Z" fill="#231F20"/>
<path d="M77.1616 54.5306C76.6618 54.5306 76.1392 54.2139 75.6699 53.6235C75.5329 53.4512 75.4162 53.2561 75.3249 53.0432L75.3198 53.0331C75.0408 52.3946 75.023 51.6851 75.2691 51.0313L75.8805 49.4046C75.9464 49.2272 76.1443 49.136 76.3219 49.2044C76.4995 49.2703 76.5883 49.4679 76.5223 49.6453L75.9109 51.2721C75.7283 51.756 75.7435 52.2831 75.949 52.7569L75.954 52.767C76.0225 52.9241 76.1088 53.0686 76.2077 53.1953C76.3777 53.4106 76.8191 53.9022 77.2352 53.8363C77.6106 53.7755 77.9937 53.2586 78.3159 52.3794C78.4072 52.131 78.3235 51.8574 78.118 51.7281C78.0369 51.6775 77.9836 51.6825 77.9481 51.6927C77.877 51.7129 77.6817 51.8118 77.4204 52.3059C77.3316 52.4731 77.1236 52.539 76.9561 52.4503C76.7887 52.3616 76.7227 52.1538 76.8115 51.9866C77.1007 51.4393 77.4128 51.1276 77.7679 51.0313C78.0064 50.9655 78.2525 51.006 78.4808 51.1479C78.9628 51.4469 79.1632 52.0626 78.9628 52.6175C78.5341 53.7907 78.0039 54.4115 77.3468 54.5179C77.2859 54.5281 77.2225 54.5331 77.1616 54.5331V54.5306Z" fill="#231F20"/>
<path d="M82.1619 55.2825C82.0401 55.2825 81.9209 55.2166 81.8575 55.1001L78.4834 48.7831C78.25 48.3447 77.7959 48.0736 77.3012 48.0736H76.9029C76.7989 48.0736 76.6923 48.066 76.5908 48.0483L72.9656 47.4832C72.5013 47.4097 72.0548 47.2273 71.6718 46.9537L68.8152 44.9063C68.5869 44.7416 68.3154 44.6554 68.0338 44.6554H68.0186C67.5315 44.6554 67.0825 44.919 66.8465 45.3446C66.2859 46.3531 65.2204 48.2181 64.3883 49.3659C64.269 49.5306 64.2614 49.7485 64.3731 49.9208L64.3807 49.9335C64.4517 50.045 64.5633 50.1235 64.6927 50.1539C64.8221 50.1818 64.9566 50.159 65.0682 50.0881C65.9028 49.5585 67.4301 48.4664 68.2875 47.1184C68.3459 47.0246 68.4473 46.9663 68.559 46.9587C68.6681 46.9537 68.7771 46.9993 68.8456 47.0879L70.6266 49.3102C70.7458 49.4571 70.7204 49.675 70.5733 49.7916C70.4261 49.9107 70.208 49.8853 70.0913 49.7384L68.5996 47.876C67.6533 49.1505 66.2402 50.1539 65.4386 50.6658C65.1722 50.8355 64.8551 50.8913 64.5456 50.8229C64.2361 50.7545 63.9722 50.5695 63.8023 50.3009L63.7946 50.2882C63.5333 49.8777 63.5486 49.3558 63.8352 48.963C64.647 47.843 65.6948 46.006 66.2478 45.0102C66.6055 44.3666 67.2854 43.9688 68.0211 43.9688H68.0364C68.4626 43.9688 68.871 44.1005 69.2186 44.3488L72.0751 46.3962C72.3694 46.6065 72.7144 46.7484 73.0747 46.8042L76.6999 47.3692C76.7684 47.3793 76.8369 47.3844 76.908 47.3844H77.3063C78.0572 47.3844 78.7422 47.7949 79.0948 48.4562L82.4689 54.7732C82.5577 54.9404 82.4942 55.1482 82.3268 55.2369C82.2761 55.2648 82.2203 55.2774 82.1644 55.2774L82.1619 55.2825Z" fill="#231F20"/>
<path d="M77.1997 58.7091C77.1134 58.7091 77.0247 58.6762 76.9587 58.6103L76.1418 57.8045C73.9854 58.8155 71.21 56.7302 71.0883 56.6389C70.9386 56.5249 70.9081 56.3095 71.0223 56.1575C71.1365 56.008 71.3521 55.9776 71.5043 56.0916C71.5322 56.1119 74.2416 58.1441 76.0276 57.0874C76.1621 57.0089 76.3321 57.0292 76.4437 57.1381L77.4407 58.1187C77.5752 58.253 77.5777 58.4684 77.4432 58.6052C77.3747 58.6736 77.2885 58.7066 77.1997 58.7066V58.7091Z" fill="#231F20"/>
<path d="M65.7582 54.8885C65.6974 54.8885 65.6365 54.8733 65.5807 54.8378C65.4665 54.7694 65.3549 54.6959 65.2458 54.6199C64.9109 54.3868 64.7054 54.0194 64.6826 53.6089C64.6623 53.2161 64.817 52.8437 65.1113 52.5877C65.8597 51.9365 67.1053 52.0759 68.0186 52.3065C68.5032 52.4281 69.0156 52.4915 69.5408 52.4915H70.208C70.3982 52.4915 70.5505 52.646 70.5505 52.8335C70.5505 53.021 70.3957 53.1756 70.208 53.1756H69.5408C68.9573 53.1756 68.389 53.1072 67.8487 52.9704C66.7984 52.7043 65.9637 52.7524 65.5629 53.1021C65.4284 53.2187 65.3599 53.3859 65.3676 53.5709C65.3777 53.766 65.4766 53.9434 65.6365 54.0549C65.7329 54.1233 65.8343 54.1866 65.9333 54.2474C66.0956 54.3463 66.1489 54.5566 66.05 54.7187C65.9866 54.8252 65.8724 54.8834 65.7557 54.8834L65.7582 54.8885Z" fill="#231F20"/>
<path d="M99.4129 85.7784C98.5123 85.7784 97.6067 85.5605 96.7746 85.1196L94.4051 83.8628C94.1488 83.726 93.9002 83.5689 93.6694 83.3966L82.3953 74.9512C77.0247 70.9274 76.0023 63.716 76.8369 58.3087C76.8572 58.1719 76.9612 58.0604 77.0957 58.0274C77.2327 57.9945 77.3748 58.0477 77.4559 58.1617L85.2519 69.0295C85.3635 69.1841 85.328 69.3969 85.1732 69.5084C85.0185 69.6199 84.8054 69.5845 84.6938 69.4299L77.4027 59.2665C76.8268 64.3596 77.9532 70.7678 82.8088 74.4039L94.0829 82.8493C94.2858 83.0013 94.504 83.1407 94.7298 83.2598L97.0993 84.5166C98.8472 85.444 100.973 85.2413 102.516 83.9971L102.564 83.9591C103.728 83.0191 104.398 81.6203 104.398 80.1254V79.986C104.398 72.6479 102.47 65.401 98.8218 59.0309L88.0907 40.2903C86.5888 37.6652 84.0316 35.8941 81.0787 35.4278L81.0127 35.4177L75.604 34.5917C74.6932 34.4523 73.752 34.3079 72.8768 33.905C71.3344 33.193 70.3805 31.8449 69.8503 30.8365C69.3556 29.8989 69.1526 28.9082 68.9522 27.9504C68.8786 27.5982 68.8051 27.2358 68.7163 26.876C68.6909 26.7772 68.7112 26.6733 68.7721 26.5922C68.8304 26.5111 68.9243 26.4579 69.0258 26.4503C69.1932 26.4376 69.348 26.4275 69.5027 26.4047C70.8549 26.2248 72.1031 25.2518 72.6079 23.9849C73.1127 22.7179 72.8743 21.1545 72.0143 20.0954C71.8138 19.847 71.6185 19.6747 71.4206 19.5683C70.8574 19.2668 70.1572 19.434 69.6904 19.6899C69.107 20.0067 68.4397 21.2381 68.2317 21.6866C68.1861 21.7855 68.0973 21.8564 67.9907 21.8767C62.96 22.9434 58.0739 21.8133 54.8596 20.6807C52.5992 19.8825 50.8538 18.9881 49.8847 18.4407C50.5012 20.2879 50.7473 22.2416 50.9858 24.1394C51.0746 24.8489 51.1684 25.5812 51.2775 26.2932C51.8509 30.0003 52.9569 32.4505 54.7632 34.0089C56.4909 35.4988 58.972 36.1475 61.3998 35.7446C63.6501 35.3696 65.8115 34.128 67.4859 32.2504C67.6127 32.1085 67.8284 32.0958 67.9704 32.2225C68.1125 32.3492 68.1252 32.5646 67.9983 32.7065C66.22 34.7006 63.9164 36.0182 61.514 36.4211C58.8883 36.8595 56.1941 36.1525 54.3142 34.5283C52.376 32.856 51.1963 30.2739 50.5976 26.3971C50.486 25.675 50.3921 24.9376 50.3033 24.2256C50.0294 22.0515 49.7452 19.804 48.903 17.7794C48.8446 17.64 48.8852 17.4804 48.9994 17.3841C49.1161 17.2878 49.281 17.2777 49.4053 17.3613C49.4281 17.3765 51.7012 18.8411 55.1032 20.0396C58.1931 21.1292 62.8687 22.2137 67.6787 21.2407C67.9095 20.7744 68.5945 19.505 69.3556 19.0894C70.1674 18.646 71.0578 18.6004 71.7403 18.9653C72.0219 19.1148 72.2832 19.3453 72.5445 19.6646C73.5719 20.929 73.8459 22.7255 73.2421 24.2408C72.6383 25.7535 71.205 26.8709 69.589 27.0863C69.5484 27.0914 69.5103 27.0965 69.4697 27.1015C69.523 27.3397 69.5738 27.5779 69.6194 27.811C69.8173 28.7637 70.0025 29.6633 70.4515 30.5147C70.931 31.4268 71.791 32.6482 73.1584 33.2791C73.9448 33.6415 74.8378 33.7783 75.7004 33.91L81.1776 34.7462C84.3386 35.2454 87.0734 37.1382 88.6792 39.9457L99.4104 58.6863C103.117 65.1603 105.078 72.5237 105.078 79.9835V80.1228C105.078 81.8281 104.317 83.4194 102.987 84.4912L102.939 84.5292C101.917 85.3553 100.666 85.7784 99.4079 85.7784H99.4129Z" fill="#231F20"/>
<path d="M45.2853 54.8893C45.2396 54.8893 45.194 54.8792 45.1483 54.8615C44.9733 54.7855 44.8946 54.5853 44.9707 54.4104C46.3508 51.2279 47.8704 48.0555 49.4814 44.9819C50.6915 42.6761 52.0335 40.2562 53.9565 38.2545C55.0372 37.1294 56.2296 36.235 57.5005 35.5939C57.6705 35.5077 57.876 35.5762 57.9623 35.7459C58.0485 35.9157 57.98 36.1209 57.81 36.2071C56.6253 36.8026 55.4659 37.6742 54.4537 38.7283C52.5916 40.6667 51.2775 43.0384 50.0927 45.2986C48.4894 48.357 46.98 51.5142 45.6049 54.6816C45.5491 54.8108 45.4223 54.8893 45.2904 54.8893H45.2853Z" fill="#231F20"/>
<path d="M65.71 38.4549C65.6034 38.4549 65.4994 38.4068 65.4309 38.313C64.751 37.3806 64.2589 36.3493 63.9621 35.2445C63.9139 35.0621 64.0229 34.8746 64.2056 34.8239C64.3883 34.7757 64.576 34.8847 64.6267 35.0671C64.9007 36.0883 65.3574 37.0461 65.9865 37.9076C66.0981 38.0596 66.0652 38.275 65.9104 38.3865C65.8495 38.4321 65.7785 38.4524 65.7075 38.4524L65.71 38.4549Z" fill="#231F20"/>
<path d="M67.4833 42.2984C66.5472 42.2984 65.6263 42.1895 64.7409 41.9665C61.656 41.1886 59.0506 38.9182 58.1069 36.1867C58.046 36.0068 58.1398 35.8117 58.32 35.7509C58.5001 35.6876 58.6954 35.7838 58.7563 35.9638C59.6265 38.4824 62.0416 40.5779 64.9083 41.3026C67.671 41.9994 70.8244 41.5205 73.5592 39.985C75.6877 38.7916 77.6056 36.9418 79.1049 34.6385C79.2089 34.4789 79.422 34.4333 79.5793 34.5372C79.7391 34.6411 79.7848 34.8539 79.6808 35.011C78.1206 37.4081 76.119 39.3338 73.8966 40.583C71.8823 41.7131 69.6473 42.301 67.4833 42.301V42.2984Z" fill="#231F20"/>
<path d="M83.6967 75.3682C83.06 75.3682 82.2862 74.9425 81.3552 74.081C81.2156 73.9518 81.208 73.7339 81.3374 73.597C81.4668 73.4577 81.6824 73.4501 81.822 73.5793C82.5221 74.2254 83.4684 74.9248 84.0139 74.5979C84.4933 74.309 85.4472 72.7279 83.92 64.3256C83.065 59.6253 81.8448 55.077 81.8321 55.0313C81.7915 54.8818 81.8575 54.7222 81.9919 54.6462C82.1264 54.5676 82.2964 54.5904 82.4054 54.6994C82.5044 54.7982 92.5227 64.6677 100.752 70.2067C100.91 70.3131 100.95 70.526 100.846 70.6831C100.74 70.8402 100.527 70.8807 100.369 70.7768C93.5146 66.1626 85.4421 58.5788 82.8037 56.0424C83.2249 57.7122 84.0012 60.9226 84.5973 64.204C85.1047 66.9912 85.3863 69.2869 85.4345 71.0327C85.5005 73.3563 85.1529 74.7145 84.3716 75.1858C84.1661 75.3099 83.9428 75.3707 83.6993 75.3707L83.6967 75.3682Z" fill="#231F20"/>
<path d="M100.56 68.6808C100.511 68.6808 100.463 68.6707 100.418 68.6504C99.0349 68.022 97.7056 68.6403 97.6929 68.6479C97.5229 68.729 97.3174 68.658 97.2337 68.4857C97.1525 68.3159 97.2236 68.1107 97.3961 68.0271C97.4621 67.9967 99.0299 67.2669 100.702 68.0245C100.874 68.1031 100.95 68.3058 100.872 68.4781C100.813 68.6048 100.689 68.6783 100.56 68.6783V68.6808Z" fill="#231F20"/>
<path d="M84.8333 76.6917C84.643 76.6917 84.4908 76.5371 84.4908 76.3496C84.4908 76.1621 84.6455 76.0076 84.8333 76.0076C85.5284 76.0076 86.0561 75.7466 86.4493 75.2069C88.5143 72.3689 86.2032 62.8162 84.5136 57.6192C84.5035 57.5838 84.4832 57.5255 84.4958 57.4469C84.5238 57.2594 84.6963 57.1302 84.8865 57.1581C85.0235 57.1783 85.1301 57.2746 85.1656 57.3988V57.4064C85.6451 58.8735 89.7498 71.8393 87.0074 75.6097C86.4848 76.3294 85.7542 76.6917 84.8358 76.6917H84.8333Z" fill="#231F20"/>
<path d="M68.7391 44.8148C68.5564 44.8148 68.4042 44.6704 68.3966 44.4854C68.389 44.2953 68.5361 44.1357 68.7264 44.1281C69.3048 44.1053 69.9061 44.0521 70.5149 43.9735C70.5378 43.971 72.7322 43.6847 75.2184 42.4558C78.5265 40.8214 80.7514 38.3788 81.8372 35.1962C81.8981 35.0163 82.0934 34.92 82.2735 34.9834C82.4536 35.0442 82.5501 35.2393 82.4892 35.4192C81.0584 39.6127 77.8999 41.9008 75.5025 43.0841C72.9174 44.3587 70.6951 44.645 70.6012 44.6552C69.9746 44.7362 69.3505 44.7894 68.7543 44.8148C68.7492 44.8148 68.7442 44.8148 68.7391 44.8148Z" fill="#231F20"/>
<path d="M67.3032 44.815C67.3032 44.815 67.293 44.815 67.288 44.815C62.4983 44.6225 59.7026 42.4357 58.2033 40.6367C56.5746 38.6831 56.09 36.7953 56.0697 36.7168C56.0241 36.5318 56.1357 36.3468 56.3209 36.3012C56.5061 36.2556 56.6913 36.3671 56.7369 36.5495C56.742 36.5673 57.2139 38.3866 58.7512 40.2211C60.8036 42.6689 63.6855 43.9839 67.3159 44.1309C67.5061 44.1385 67.6533 44.2981 67.6457 44.4882C67.6381 44.6731 67.4858 44.8176 67.3032 44.8176V44.815Z" fill="#231F20"/>
<path d="M50.3287 155.796C45.8333 155.796 42.5835 155.112 42.5505 155.104C42.3704 155.066 42.2512 154.891 42.2842 154.709C45.2549 137.767 41.8174 119.622 39.5011 110.313C38.6208 106.77 38.1743 103.122 38.1743 99.4703V99.3791C38.1743 97.3064 39.0191 95.2793 40.4906 93.8173L40.5311 93.7767C41.7793 92.5377 43.4283 91.7446 45.1762 91.5444L52.102 90.7513C52.2314 90.7361 52.3582 90.7969 52.4293 90.9058C59.5707 101.878 71.4206 106.142 77.8517 107.705C80.0334 108.238 82.2228 108.537 84.3944 108.602H86.2058C86.2058 108.602 86.2261 108.602 86.2362 108.602C87.5199 108.564 88.7959 108.445 90.0644 108.243C95.5264 107.373 98.9385 105.275 100.199 102.007C101.658 98.2262 99.9913 93.4879 98.3347 90.1761C96.5208 86.5501 94.3214 83.7983 94.2985 83.7705C94.1793 83.6235 94.2021 83.4056 94.3518 83.289C94.4989 83.1699 94.7171 83.1927 94.8338 83.3422C94.8566 83.3701 97.0942 86.17 98.9436 89.8594C101.448 94.8587 102.087 99.0294 100.841 102.255C99.484 105.77 95.8942 108.012 90.171 108.922C88.2581 109.226 86.325 109.347 84.3817 109.289H58.1957C58.8527 115.064 59.1318 120.557 59.2383 123.352C59.2916 124.72 59.4819 126.068 59.8066 127.366C61.8691 135.611 67.5696 150.956 67.6254 151.108C67.6837 151.263 67.6229 151.435 67.4833 151.521C61.8793 154.934 55.4 155.727 50.9502 155.788C50.7422 155.791 50.5342 155.793 50.3312 155.793L50.3287 155.796ZM43.0173 154.496C43.9864 154.673 47.0459 155.162 50.9553 155.107C55.2503 155.043 61.4708 154.293 66.8821 151.085C66.1109 148.995 61.0598 135.216 59.1394 127.536C58.8045 126.195 58.6067 124.796 58.5509 123.382C58.4418 120.534 58.1526 114.879 57.4676 108.99C57.4574 108.894 57.4879 108.795 57.5513 108.722C57.6173 108.648 57.7111 108.607 57.8075 108.607H78.7041C78.3642 108.537 78.0242 108.458 77.6843 108.377C74.5004 107.602 69.6904 106.099 64.8525 103.332C59.4616 100.251 55.1286 96.2574 51.9676 91.4633L45.2523 92.2311C43.6566 92.4135 42.1522 93.1357 41.0132 94.2683L40.9726 94.3088C39.6305 95.6417 38.8593 97.4914 38.8593 99.3842V99.4754C38.8593 103.071 39.2982 106.664 40.1658 110.153C41.2415 114.484 42.6951 121.305 43.5044 129.208C44.4558 138.5 44.2908 147.008 43.0148 154.501L43.0173 154.496Z" fill="#231F20"/>
<path d="M35.5512 152.595C35.508 152.595 35.4674 152.587 35.4268 152.572C28.6025 149.922 23.8712 145.3 21.1034 141.889C18.1048 138.195 16.7374 135.17 16.6816 135.043C16.6384 134.944 16.6435 134.83 16.6943 134.736C24.4953 120.782 30.2693 104.862 33.0168 96.6117C34.8687 91.0498 37.3625 85.6907 40.4296 80.6812L40.4981 80.5697C41.7184 78.5756 43.6008 77.0375 45.7978 76.2368L45.8739 76.2089C48.492 75.2537 51.3333 75.3854 53.8728 76.5789C67.7827 83.1087 87.4412 85.0724 87.6391 85.0902C87.8268 85.1079 87.9664 85.2751 87.9486 85.4652C87.9309 85.6527 87.7634 85.792 87.5731 85.7743C87.3753 85.754 67.5975 83.7801 53.581 77.1997C51.209 76.0848 48.5554 75.9631 46.1098 76.8525L46.0337 76.8804C43.9813 77.6279 42.2232 79.0646 41.0842 80.927L41.0157 81.0385C37.9765 86.0023 35.5055 91.3159 33.6688 96.8271C30.9238 105.067 25.165 120.95 17.3792 134.916C17.6989 135.58 19.0764 138.309 21.6489 141.474C24.3152 144.755 28.8359 149.179 35.3228 151.794C36.0966 149.065 40.9396 131.622 41.5789 120.197C41.589 120.007 41.7488 119.862 41.9416 119.873C42.1319 119.883 42.2765 120.045 42.2664 120.235C41.5713 132.674 35.9368 152.152 35.8784 152.347C35.8505 152.441 35.7871 152.517 35.7008 152.56C35.6526 152.582 35.6019 152.595 35.5486 152.595H35.5512Z" fill="#231F20"/>
<path d="M36.429 149.421C36.3909 149.421 36.3503 149.413 36.3123 149.401C30.0943 147.138 25.472 142.658 22.689 139.301C19.6777 135.667 18.1048 132.515 18.0896 132.484C18.0059 132.315 18.0744 132.109 18.2443 132.026C18.4143 131.942 18.6198 132.011 18.7035 132.18C18.7187 132.211 20.2612 135.302 23.2268 138.877C25.954 142.166 30.4774 146.55 36.5431 148.757C36.7207 148.823 36.812 149.018 36.7486 149.198C36.6979 149.337 36.5659 149.423 36.4264 149.423L36.429 149.421Z" fill="#231F20"/>
<path d="M48.662 152.983C45.2219 152.983 43.0579 152.608 42.9539 152.591C42.7662 152.558 42.6419 152.38 42.6749 152.193C42.7078 152.005 42.8854 151.881 43.0732 151.914C43.1011 151.919 45.9627 152.413 50.2501 152.269C54.2001 152.137 60.2049 151.42 66.3747 148.762C66.5498 148.686 66.7502 148.767 66.8263 148.942C66.9024 149.117 66.8212 149.317 66.6462 149.393C60.3698 152.097 54.2686 152.824 50.2526 152.956C49.6945 152.973 49.1643 152.981 48.6594 152.981L48.662 152.983Z" fill="#231F20"/>
<path d="M41.2744 80.3764C41.1679 80.3764 41.0639 80.3283 40.9979 80.237C40.6605 79.7759 40.4094 79.2868 40.2546 78.7775L39.9958 77.9337C39.94 77.7513 40.0415 77.5613 40.2242 77.5055C40.4068 77.4498 40.5971 77.5511 40.6529 77.7336L40.9117 78.5773C41.0436 79.0106 41.2592 79.4338 41.551 79.8316C41.6626 79.9837 41.6296 80.199 41.4774 80.3105C41.4165 80.3561 41.3455 80.3764 41.2744 80.3764Z" fill="#231F20"/>
<path d="M76.1393 82.4689H69.0841C68.8938 82.4689 68.7416 82.3143 68.7416 82.1268C68.7416 81.9393 68.8964 81.7847 69.0841 81.7847H76.1393C76.9206 81.7847 77.5675 81.4933 77.9582 80.9663C78.3794 80.3987 78.4682 79.6208 78.2094 78.777L71.8874 58.0981C71.347 56.3294 69.4722 54.8902 67.7065 54.8902H36.6598C35.8784 54.8902 35.2315 55.1816 34.8408 55.7086C34.4197 56.2762 34.3309 57.0541 34.5897 57.8979L35.6197 61.268C35.6755 61.4504 35.574 61.6404 35.3913 61.6962C35.2087 61.7519 35.0184 61.6506 34.9626 61.4681L33.9326 58.0981C33.6104 57.0415 33.7373 56.0456 34.2903 55.3007C34.8129 54.5937 35.6552 54.2061 36.6623 54.2061H67.7091C69.7538 54.2061 71.9254 55.8632 72.547 57.9004L78.869 78.5794C79.1912 79.636 79.0643 80.6318 78.5113 81.3768C77.9887 82.0837 77.1464 82.4714 76.1393 82.4714V82.4689Z" fill="#231F20"/>
<path d="M40.4094 78.1479C40.3256 78.1479 40.2419 78.1175 40.1785 78.0593L33.8159 72.2896C33.3618 71.8791 32.966 71.4078 32.6388 70.8909L32.5982 70.8276C31.728 69.4542 31.3855 67.8249 31.6189 66.2235C31.1166 65.8738 29.8253 64.8578 29.8786 63.6922C29.9116 62.9726 30.4241 62.3619 31.4033 61.8729C31.4794 61.8374 33.1842 61.0215 35.3812 61.0215C36.6826 61.0215 37.8851 61.3078 38.9532 61.8754C38.9861 61.8931 39.0166 61.9159 39.042 61.9438C39.0673 61.9717 41.5662 64.6272 43.4334 65.9651C43.8672 66.2767 44.0092 66.8519 43.7708 67.3308L43.7657 67.341C43.5805 67.7134 43.2076 67.944 42.7915 67.944C42.7281 67.944 42.6647 67.939 42.6038 67.9288C41.2998 67.7008 38.9658 67.123 37.8293 65.8054L36.8932 65.4279L37.464 67.2979C38.1134 67.6906 41.4977 69.7025 43.961 70.4348C44.4304 70.5742 44.7449 70.9948 44.7449 71.4788V71.9019C44.7449 72.3707 44.4456 72.7863 44.0016 72.9332C43.578 73.0751 42.9615 73.2373 42.2892 73.2854L42.4389 75.2137C42.5378 76.4984 41.759 77.6918 40.5438 78.1226L40.5235 78.1302C40.4855 78.1429 40.4474 78.1505 40.4094 78.1505V78.1479ZM35.3812 61.7082C33.339 61.7082 31.7229 62.481 31.7052 62.4886C30.9695 62.856 30.5839 63.2716 30.5636 63.7201C30.5255 64.5588 31.7128 65.4811 32.172 65.7649C32.2912 65.8384 32.3546 65.9777 32.3293 66.1146L32.3242 66.1399C32.0604 67.64 32.3623 69.173 33.1741 70.4576L33.2147 70.521C33.5089 70.9872 33.8641 71.4104 34.2726 71.7803L40.4778 77.4055C41.3023 77.0356 41.8199 76.1791 41.7488 75.2644L41.5738 72.9788C41.5662 72.8825 41.5992 72.7888 41.6651 72.7204C41.7311 72.6494 41.8224 72.6114 41.9163 72.6114C42.6368 72.6114 43.3293 72.4315 43.7809 72.282C43.9433 72.2288 44.0524 72.0742 44.0524 71.9019V71.4788C44.0524 71.2989 43.9357 71.1443 43.7581 71.0936C40.9497 70.2574 37.1469 67.9162 36.9871 67.8173C36.916 67.7743 36.8627 67.7058 36.8399 67.6248L36.0205 64.9414C35.9824 64.8147 36.0205 64.6779 36.1169 64.5892C36.2158 64.5005 36.3554 64.4752 36.4771 64.5233L38.1591 65.1998C38.2124 65.2226 38.2606 65.2556 38.2961 65.3012C39.3033 66.5403 41.7209 67.0774 42.7129 67.2497C42.8879 67.2802 43.063 67.1915 43.1416 67.0344L43.1467 67.0242C43.2355 66.8469 43.1847 66.634 43.0249 66.52C41.211 65.2226 38.9151 62.8155 38.5726 62.4531C37.6162 61.9565 36.5405 61.7056 35.3736 61.7056L35.3812 61.7082Z" fill="#231F20"/>
<path d="M46.191 52.9388C46.1377 52.9388 46.0819 52.9261 46.0312 52.8982C39.8183 49.6244 36.0763 42.3624 37.1291 35.6299C37.5021 33.2531 38.3925 30.9878 39.2551 28.7985C39.9375 27.0628 40.6453 25.2663 41.0816 23.4394C41.4495 21.8988 41.6347 20.2873 41.8148 18.7264C42.033 16.8463 42.2562 14.9028 42.7991 13.0429C43.994 8.94817 46.8531 5.35767 50.8513 2.93276C54.7861 0.548381 59.3271 -0.432228 63.6374 0.175902C67.8994 0.77643 71.9254 2.79339 75.2818 6.00634C78.5138 9.10274 80.8605 13.1341 81.8905 17.3581C83.4456 23.7333 82.6845 29.8324 79.6935 34.9964C79.5996 35.1611 79.3891 35.2168 79.2242 35.1206C79.0593 35.0268 79.0034 34.8165 79.0999 34.6518C82.0021 29.6449 82.7352 23.7207 81.2232 17.5203C79.1151 8.87722 71.8443 2.0231 63.5435 0.85498C54.8165 -0.373949 45.8079 5.1803 43.4587 13.2355C42.9336 15.0396 42.7129 16.9527 42.4998 18.8049C42.3171 20.3861 42.1294 22.0179 41.7514 23.599C41.3049 25.4716 40.5895 27.2909 39.8969 29.0494C39.047 31.2057 38.1718 33.4355 37.8116 35.7363C36.8019 42.1875 40.3941 49.1506 46.3534 52.2926C46.5208 52.3813 46.5842 52.5891 46.498 52.7563C46.4371 52.8729 46.3178 52.9388 46.1935 52.9388H46.191Z" fill="#231F20"/>
<path d="M64.4999 25.4501C60.3799 25.4501 56.5771 23.5928 54.0174 21.9458C50.9832 19.9947 49.0501 17.9727 48.9714 17.889C48.8421 17.7522 48.8471 17.5343 48.9841 17.4051C49.1211 17.2758 49.3393 17.2809 49.4687 17.4177C49.489 17.438 51.4322 19.4727 54.403 21.3782C57.1225 23.124 61.2882 25.1207 65.677 24.7102C65.8673 24.6925 66.0347 24.8319 66.05 25.0194C66.0677 25.2069 65.9282 25.3741 65.7404 25.3918C65.3244 25.4298 64.9083 25.4501 64.4974 25.4501H64.4999Z" fill="#231F20"/>
<path d="M55.9378 30.5719C55.8921 30.5719 55.8439 30.5618 55.7983 30.5415C55.4 30.3641 54.9484 30.164 54.5856 29.827C54.1417 29.4139 53.9286 28.8666 54.0174 28.3598C54.0859 27.9696 54.3167 27.663 54.5197 27.3944C54.5856 27.3058 54.6491 27.2247 54.7023 27.1411C55.0118 26.6774 55.159 26.0946 55.1032 25.5396C55.0854 25.3521 55.2224 25.1824 55.4101 25.1646C55.5979 25.1469 55.7678 25.2837 55.7856 25.4712C55.8566 26.1909 55.674 26.9181 55.2706 27.5211C55.2046 27.62 55.1336 27.7137 55.0651 27.8049C54.8926 28.033 54.7302 28.2484 54.6922 28.4764C54.6364 28.8033 54.8419 29.1276 55.0524 29.3253C55.3315 29.5837 55.7095 29.7535 56.0748 29.9156C56.2473 29.9917 56.326 30.1944 56.2499 30.3692C56.194 30.4959 56.0672 30.5719 55.9353 30.5719H55.9378Z" fill="#231F20"/>
<path d="M54.1113 26.3216C54.2457 26.8892 54.0783 27.4163 53.7358 27.4973C53.3933 27.5784 53.0077 27.1831 52.8732 26.613C52.7388 26.0454 52.9062 25.5184 53.2487 25.4373C53.5912 25.3562 53.9768 25.7515 54.1113 26.3216Z" fill="#231F20"/>
<path d="M61.4049 24.6908C61.5393 25.2584 61.3719 25.7854 61.0294 25.8665C60.6869 25.9476 60.3013 25.5523 60.1669 24.9822C60.0324 24.4146 60.1999 23.8875 60.5423 23.8064C60.8848 23.7254 61.2704 24.1206 61.4049 24.6908Z" fill="#231F20"/>
<path d="M60.8493 30.8691C60.7123 30.8691 60.5829 30.7854 60.5296 30.6511C60.4611 30.4738 60.5474 30.2761 60.725 30.2077C61.9554 29.7288 63.0615 28.9458 63.919 27.945C64.0433 27.8005 64.2589 27.7853 64.4035 27.907C64.5481 28.0311 64.5633 28.2465 64.4416 28.3909C63.508 29.478 62.3106 30.3268 60.9736 30.8463C60.933 30.8615 60.8899 30.8691 60.8493 30.8691Z" fill="#231F20"/>
<path d="M63.4572 31.8423C63.3608 31.8423 63.2669 31.8018 63.1985 31.7257C63.0741 31.5838 63.0868 31.3659 63.2314 31.2418L64.4568 30.1699C64.5988 30.0458 64.817 30.0584 64.9413 30.2029C65.0656 30.3448 65.0529 30.5627 64.9083 30.6868L63.683 31.7587C63.6171 31.8144 63.5384 31.8448 63.4572 31.8448V31.8423Z" fill="#231F20"/>
<path d="M50.6458 25.1946C51.6098 24.4395 52.754 23.9074 53.9539 23.6616C54.1696 23.616 54.2761 23.3727 54.1696 23.1802C54.0047 22.8862 53.8727 22.5695 53.6673 22.3009C53.3654 21.9031 52.8301 21.5965 52.376 21.8043C52.1349 21.9132 51.9701 22.1489 51.8863 22.3972C51.8001 22.6455 51.7849 22.9141 51.7696 23.1751C51.8229 22.9344 51.3586 22.9192 51.1176 22.9724C50.8766 23.0256 50.7067 23.2384 50.5722 23.4462C50.2703 23.92 50.1562 24.3939 50.113 24.9083C50.0902 25.1946 50.42 25.372 50.6458 25.1946Z" fill="#231F20"/>
<path d="M62.0087 21.162C60.7859 21.0657 59.5402 21.2582 58.4037 21.7169C58.1982 21.8005 57.975 21.6561 57.9572 21.4356C57.9318 21.0986 57.8659 20.7616 57.8862 20.4246C57.9166 19.928 58.1931 19.3756 58.6853 19.297C58.9466 19.2565 59.213 19.3578 59.421 19.52C59.629 19.6796 59.7914 19.8925 59.9512 20.1053C59.7736 19.933 60.1516 19.6644 60.3825 19.5758C60.6134 19.4871 60.8721 19.5681 61.0979 19.6695C61.6104 19.8976 61.9706 20.227 62.2928 20.6324C62.4704 20.8579 62.2928 21.1873 62.0087 21.1645V21.162Z" fill="#231F20"/>
<path d="M92.5455 82.4683H76.1393C75.949 82.4683 75.7968 82.3138 75.7968 82.1263C75.7968 81.9387 75.9515 81.7842 76.1393 81.7842H92.5455C92.7358 81.7842 92.888 81.9387 92.888 82.1263C92.888 82.3138 92.7332 82.4683 92.5455 82.4683Z" fill="#231F20"/>
<path d="M51.2749 162.693C51.1811 162.693 51.0872 162.688 50.9984 162.678C49.8999 162.549 49.0069 161.675 48.8268 160.55L48.0175 155.464C47.9871 155.277 48.1165 155.102 48.3017 155.071C48.4894 155.041 48.6644 155.17 48.6949 155.355L49.5042 160.441C49.6361 161.264 50.2805 161.903 51.0771 161.997C52.277 162.136 53.3907 160.986 54.2964 158.67C54.3776 158.462 54.4207 158.236 54.4207 158.003V155.221C54.4207 155.031 54.5755 154.879 54.7632 154.879C54.9509 154.879 55.1057 155.033 55.1057 155.221V158.003C55.1057 158.322 55.0473 158.632 54.9357 158.92C53.7408 161.979 52.3303 162.696 51.2749 162.696V162.693Z" fill="#231F20"/>
<path d="M21.7351 146.648C20.7965 146.648 19.944 146.288 19.2464 145.586C18.3559 144.692 18.1733 143.283 18.8024 142.161L19.9669 140.08C20.0582 139.916 20.2688 139.855 20.4337 139.948C20.5986 140.04 20.6595 140.25 20.5656 140.415L19.4011 142.495C18.9217 143.351 19.0587 144.423 19.7335 145.102C20.4438 145.817 21.3114 146.088 22.311 145.908C22.8006 145.819 23.2547 145.551 23.5871 145.153L24.0082 144.649C24.13 144.502 24.3456 144.484 24.4927 144.603C24.6399 144.725 24.6576 144.94 24.5384 145.087L24.1173 145.591C23.6809 146.116 23.0822 146.468 22.4328 146.585C22.1968 146.628 21.9634 146.648 21.7351 146.648Z" fill="#231F20"/>
<path d="M70.0152 24.2117C70.0152 24.2117 70.0075 24.2117 70.0025 24.2117C69.8122 24.2041 69.6651 24.047 69.6701 23.857C69.7006 22.9803 70.1268 22.1264 70.8092 21.5714C70.9564 21.4524 71.172 21.4752 71.2938 21.6221C71.413 21.7691 71.3902 21.9845 71.243 22.1061C70.7128 22.5369 70.383 23.2007 70.3577 23.8823C70.35 24.0673 70.1978 24.2143 70.0152 24.2143V24.2117Z" fill="#231F20"/>
<defs>
<linearGradient id="paint0_linear_193_3520" x1="64.8094" y1="128.306" x2="46.5904" y2="87.1142" gradientUnits="userSpaceOnUse">
<stop stop-color="#00A52E"/>
<stop offset="1" stop-color="#ADD250"/>
</linearGradient>
</defs>
</svg>
