<svg width="149" height="181" viewBox="0 0 149 181" fill="none" xmlns="http://www.w3.org/2000/svg">
<g clip-path="url(#clip0_50_11428)">
<path d="M52.7038 166.508L39.9768 165.464C39.9768 165.464 35.0226 164.61 31.1583 163.205C31.1583 163.205 27.4935 160.968 16.5212 163.37C16.5212 163.37 9.09555 163.506 8.93669 170.585C8.93669 170.585 8.70764 176.659 14.7332 177.983C14.7332 177.983 23.5553 179.874 29.4958 180.503C29.4958 180.503 44.2992 180.223 56.4425 177.648L58.6259 177.052L52.7038 166.508Z" fill="#231F20"/>
<path d="M58.5371 166.387H52.6705C52.6705 166.387 48.8616 169.367 51.5659 173.7C51.5659 173.7 53.4094 176.776 58.2638 176.89L64.5959 175.672C64.5959 175.672 58.6221 172.718 58.5371 166.387Z" fill="#00B432"/>
<path d="M76.6655 72.6779C73.7765 72.8765 70.7065 72.8618 67.5035 72.5454C50.0217 70.8237 37.5458 54.835 40.1652 37.5367C40.1799 37.441 40.1947 37.3417 40.2095 37.246C41.3584 29.9029 43.6083 22.5928 47.9603 16.4306C51.2187 11.8135 56.4647 7.6453 62.2649 8.34061C64.995 3.23425 71.2052 0.125549 76.998 0.533911C82.7907 0.942273 88.1328 4.06937 92.204 8.18978C99.0349 15.1099 102.604 24.6457 104.37 34.1888C104.624 35.5758 104.846 37.0142 105.02 38.4895C107.07 55.8578 94.1916 71.4822 76.6692 72.6779H76.6655Z" fill="#231F20"/>
<path d="M72.8602 73.3065C71.0537 73.3065 69.2361 73.2182 67.4554 73.0416C63.1182 72.6149 59.0138 71.3272 55.2492 69.2192C51.6213 67.1847 48.4811 64.4881 45.9098 61.1991C43.3386 57.9065 41.4803 54.2055 40.3942 50.1991C39.2637 46.0419 39.0235 41.7559 39.6738 37.4626L39.7181 37.1683C41.0591 28.5927 43.6193 21.7131 47.5538 16.1432C49.22 13.7813 51.2223 11.7726 53.3429 10.3305C56.1728 8.40637 59.0913 7.55286 61.9877 7.8067C64.6514 3.12342 70.2225 0 75.9709 0C76.3256 0 76.6839 0.0110368 77.0349 0.0367894C82.4545 0.419399 87.9702 3.18964 92.5623 7.84349C98.6395 13.9984 102.777 22.8315 104.861 34.1001C105.123 35.5238 105.345 36.9807 105.515 38.4302C106.025 42.7603 105.644 47.0499 104.381 51.185C103.161 55.173 101.185 58.8262 98.5028 62.0453C93.0093 68.6379 85.2659 72.5891 76.6987 73.174C75.4204 73.2623 74.1274 73.3065 72.8566 73.3065H72.8602ZM60.9866 8.75955C56.6013 8.75955 51.8836 11.7321 48.3666 16.7134C44.5245 22.1546 42.0197 28.898 40.7008 37.3191L40.6565 37.6098C39.4078 45.8469 41.5542 54.0031 46.6931 60.5847C51.8282 67.159 59.2354 71.2316 67.5478 72.0483C69.2989 72.2212 71.0833 72.3095 72.8529 72.3095C74.1016 72.3095 75.3687 72.2654 76.6248 72.1807C84.915 71.6142 92.4071 67.7881 97.727 61.4088C103.088 54.978 105.496 46.8586 104.514 38.5479C104.344 37.1205 104.129 35.682 103.867 34.2803C101.82 23.2104 97.7714 14.5502 91.8382 8.54249C87.4161 4.06522 82.1294 1.398 76.9536 1.03378C76.6285 1.01171 76.2923 1.00067 75.9635 1.00067C70.4552 1.00067 65.1242 4.04315 62.697 8.5756C62.601 8.75587 62.4015 8.86256 62.1946 8.83681C61.7919 8.78898 61.3856 8.76323 60.9792 8.76323L60.9866 8.75955Z" fill="#231F20"/>
<path d="M106.058 81.2564C101.702 65.7718 87.3165 62.9133 87.3165 62.9133L61.6739 62.2363C45.1564 66.5738 42.4484 77.1655 42.4484 77.1655C38.924 88.4083 28.5872 112.45 28.5872 112.45C33.2753 114.271 37.3724 116.324 40.797 118.3C44.2106 112.513 46.9297 106.325 48.8803 99.9013C49.5194 102.488 51.3962 104.125 53.4465 105.832C53.7753 106.108 54.1226 106.395 54.2926 106.788C54.4699 107.204 54.4219 107.675 54.3738 108.124C53.7199 113.97 52.7003 119.771 51.3186 125.488C52.4047 126.382 52.97 126.916 52.97 126.916L54.2667 129.373C77.508 135.576 95.0858 129.513 95.0858 129.513L95.5734 126.916C95.5734 126.916 95.5845 126.905 95.603 126.89C95.9724 126.544 96.3603 126.195 96.7704 125.852C95.3444 120.018 94.2915 114.091 93.6265 108.124C93.5748 107.675 93.5304 107.204 93.7078 106.788C93.874 106.395 94.2213 106.108 94.5501 105.832C96.6004 104.125 98.4772 102.488 99.1163 99.9013C101.074 106.339 103.804 112.546 107.229 118.344C107.292 118.454 107.358 118.561 107.421 118.668C113.273 115.316 118.571 112.917 118.733 112.844C118.733 112.844 118.733 112.844 118.737 112.844C116.461 108.462 106.054 81.2601 106.054 81.2601L106.058 81.2564Z" fill="#00A52E"/>
<path d="M57.248 35.0457C56.2394 34.1848 54.7395 33.6403 53.5869 34.2989C52.6744 34.8213 52.2717 35.9397 52.2384 36.9882C52.1978 38.3163 52.6411 39.6149 53.199 40.8179C53.8085 42.1276 54.5917 43.3932 55.7222 44.2908C56.8564 45.1885 58.3895 45.6704 59.786 45.2842" fill="white"/>
<path d="M67.692 50.0633C67.692 50.0633 68.4789 56.082 66.6723 59.4777C66.6723 59.4777 65.3682 60.9787 61.6738 62.2332C61.6738 62.2332 72.4614 69.7162 86.2598 62.6305C86.2598 62.6305 80.7737 61.376 80.0533 59.0068C80.0533 59.0068 78.3945 54.3272 79.3329 49.8389C79.3329 49.8389 72.9934 52.9402 67.692 50.0596V50.0633Z" fill="white"/>
<path d="M71.6596 59.0576C72.428 59.6094 73.3442 60.0325 74.2863 59.9589C74.7702 59.9221 75.2394 59.7529 75.6643 59.5211C77.2122 58.6713 78.1654 56.9974 78.5459 55.2793C78.9264 53.5612 78.8156 51.7769 78.6973 50.0221C75.1508 50.8756 71.3899 50.8278 67.8655 49.8896C67.629 53.3331 68.8445 57.0378 71.6559 59.0576H71.6596Z" fill="#E4E4E4"/>
<path d="M88.0886 35.0457C89.0972 34.1848 90.5971 33.6403 91.7497 34.2989C92.6622 34.8213 93.0649 35.9397 93.0982 36.9882C93.1388 38.3163 92.6955 39.6149 92.1376 40.8179C91.5281 42.1276 90.7448 43.3932 89.6144 44.2908C88.6206 45.0745 87.3239 45.5454 86.0789 45.3908" fill="white"/>
<path d="M86.5222 45.3573C86.7033 45.4419 86.9175 45.4124 87.1133 45.3683C88.3805 45.0813 89.5073 44.3124 90.3607 43.3375C91.2178 42.3626 91.82 41.1927 92.2744 39.9787C92.5995 39.1141 92.8544 38.1465 92.5367 37.2783C91.8126 38.7499 90.5158 39.9345 88.979 40.5195C88.4174 40.7328 87.7857 40.8984 87.431 41.3803C87.298 41.5643 87.2131 41.7777 87.1318 41.991C86.8732 42.6716 86.6109 43.3486 86.3523 44.0292C86.175 44.489 86.0715 45.1439 86.5185 45.3536L86.5222 45.3573Z" fill="#E4E4E4"/>
<path d="M87.8816 31.5877C87.8779 35.2446 87.8742 37.864 87.1649 41.451C86.4593 45.0379 84.9593 48.2938 82.3991 50.9132C79.839 53.5326 76.152 53.9078 72.4872 53.7239C66.5983 53.4259 61.6996 49.9677 59.4608 44.5376C57.222 39.1038 57.1149 33.0703 57.041 27.1988C56.9819 22.5596 62.3129 19.37 66.3176 16.9971C69.9972 23.4941 76.1003 28.582 83.3523 30.4473C84.8263 30.8262 86.3632 31.4958 87.8853 31.5914L87.8816 31.5877Z" fill="white"/>
<path d="M87.2018 31.4437C86.7511 31.1568 86.2043 31.0795 85.6797 30.9875C81.6344 30.2885 77.8551 28.3976 74.6077 25.8996C71.3604 23.3979 68.6192 20.3002 66.1846 17.0039C67.5847 20.9735 70.1006 24.5457 73.3553 27.2277C77.4598 30.6086 82.5691 32.5106 87.6415 34.122C88.2843 33.3273 88.0663 31.9956 87.2018 31.4437Z" fill="#E4E4E4"/>
<path d="M57.8429 38.8126C58.3785 38.7243 58.9105 38.636 59.4462 38.544C60.2368 38.4116 61.068 38.2828 61.8217 38.5587C62.9743 38.9781 63.5987 40.2106 63.9829 41.3694C64.5888 43.1942 64.8954 45.1551 65.9187 46.7848C66.7943 48.1792 68.1464 49.235 69.6427 49.923C71.682 50.8574 74.2015 51.424 76.3701 50.5999C79.0559 49.5808 79.9758 46.6156 80.4191 44.0404C80.493 43.6099 80.5558 43.1758 80.6149 42.7417C80.8329 41.1524 81.9412 39.3865 83.2638 38.4704C84.5716 37.5691 86.2193 37.341 87.7968 37.1387C87.5788 37.1755 87.2242 40.1628 87.1577 40.4939C86.5444 43.4149 85.6577 46.4648 83.9251 48.937C82.3661 51.1591 80.0793 52.638 77.4747 53.3665C71.4455 55.0588 64.8363 52.4872 61.1789 47.5133C60.259 46.2588 59.5312 44.8681 58.9807 43.4186C58.8403 43.0544 57.5953 38.8494 57.8392 38.8089L57.8429 38.8126Z" fill="#E4E4E4"/>
<path d="M72.6683 39.8065C73.1338 40.3179 73.9355 40.4834 74.5672 40.2001C74.9366 40.0346 75.2285 39.744 75.4871 39.4349C75.6238 39.273 75.7531 39.1001 75.875 38.9272C76.1078 38.5888 76.3146 38.2135 76.3368 37.8052C76.359 37.3968 76.1521 36.9516 75.7642 36.8118C75.4908 36.7125 75.1842 36.7787 74.9034 36.856C74.3492 37.0068 73.7951 37.1944 73.3259 37.5219C72.8567 37.853 72.4762 38.3423 72.3949 38.9088C72.3728 39.0744 72.3728 39.2436 72.4208 39.4018C72.4688 39.5526 72.5612 39.6888 72.6683 39.8102V39.8065Z" fill="#E4E4E4"/>
<path d="M73.2704 43.0137C73.311 43.1388 73.3517 43.2712 73.3332 43.4C73.2925 43.7017 72.9674 43.8856 72.6645 43.9371C72.2027 44.0144 71.7298 43.9003 71.2754 43.7863C70.7878 43.6649 70.3038 43.5435 69.8162 43.4221C69.3248 43.3007 68.8298 43.1756 68.3643 42.9733C67.884 42.7636 67.437 42.4766 67.0491 42.1197C67.2855 41.8034 67.6402 41.5863 68.0096 41.4391C69.1844 40.9719 70.5181 41.1264 71.7298 41.4796C72.0586 41.5753 72.3948 41.693 72.6534 41.9174C72.9711 42.197 73.1374 42.609 73.2667 43.01L73.2704 43.0137Z" fill="#E4E4E4"/>
<path d="M59.3908 44.526C59.4203 44.6585 59.4462 44.7983 59.4055 44.927C59.3021 45.2398 58.8846 45.2913 58.5558 45.2545C57.0744 45.0889 55.7149 44.2538 54.758 43.117C53.8012 41.9802 53.2286 40.5565 52.9441 39.0996C53.9083 40.4571 55.6484 41.2224 57.3034 41.02C57.5103 40.9943 57.7209 40.9575 57.9167 41.0237C58.2159 41.1267 58.3785 41.4431 58.5004 41.7374C58.8809 42.6387 59.1802 43.5732 59.3871 44.526H59.3908Z" fill="#E4E4E4"/>
<path d="M66.8716 35.7035C66.8753 36.4614 66.528 37.0758 66.0958 37.0794C65.6636 37.0794 65.3089 36.4687 65.3052 35.7109C65.3015 34.953 65.6488 34.3386 66.081 34.335C66.5133 34.335 66.8679 34.9457 66.8716 35.7035Z" fill="#231F20"/>
<path d="M79.7761 35.0308C79.7576 35.7886 80.0975 36.4104 80.5298 36.4214C80.962 36.4324 81.3277 35.8254 81.3462 35.0675C81.3647 34.3097 81.0248 33.6879 80.5926 33.6769C80.1603 33.6659 79.7946 34.2729 79.7761 35.0308Z" fill="#231F20"/>
<path d="M68.4714 28.9451C68.4418 28.8311 68.3495 28.7464 68.2571 28.6729C67.5737 28.1284 66.6722 27.8635 65.8004 27.9481C65.479 27.9812 65.1428 28.0695 64.9174 28.3013C64.6921 28.5331 64.6403 28.9488 64.8768 29.1732C64.112 29.107 63.3288 29.2909 62.6712 29.6846C62.4717 29.806 62.2722 29.9568 62.1762 30.1665C62.0801 30.3799 62.1134 30.6668 62.3092 30.7956C62.553 30.9575 62.8707 30.8066 63.1256 30.6668C64.5147 29.9163 66.0848 29.5006 67.666 29.4675C67.8507 29.4638 68.0465 29.4638 68.2165 29.3829C68.3864 29.302 68.5194 29.118 68.4714 28.9377V28.9451Z" fill="#231F20"/>
<path d="M78.1064 28.4194C78.1433 28.309 78.2431 28.2317 78.3392 28.1655C79.0596 27.6725 79.9758 27.4702 80.8402 27.6173C81.158 27.6725 81.4904 27.7829 81.6936 28.0331C81.9005 28.2832 81.9227 28.699 81.6752 28.905C82.4436 28.8939 83.212 29.1294 83.8401 29.5709C84.0322 29.707 84.2169 29.8689 84.2982 30.0859C84.3794 30.3066 84.324 30.5899 84.1208 30.704C83.8659 30.8475 83.5593 30.6745 83.3155 30.52C81.9855 29.6739 80.4449 29.1478 78.8711 29.0043C78.6864 28.9859 78.4906 28.9749 78.3281 28.8829C78.1655 28.7909 78.0436 28.5959 78.1064 28.4194Z" fill="#231F20"/>
<path d="M73.0154 44.3566C73.0154 44.3566 73.008 44.3566 73.0043 44.3566C70.9539 44.3087 68.9331 43.7422 67.1561 42.7194C66.916 42.5833 66.8347 42.278 66.9751 42.0388C67.1118 41.7997 67.4184 41.7188 67.6585 41.8586C69.2877 42.7967 71.146 43.3191 73.0301 43.3633C73.3072 43.3706 73.5252 43.5987 73.5178 43.8746C73.5104 44.1469 73.2887 44.3603 73.0191 44.3603L73.0154 44.3566Z" fill="#231F20"/>
<path d="M70.5994 46.4722C70.5476 46.4722 70.4922 46.4648 70.4405 46.4464L68.7854 45.8909C68.5231 45.8026 68.3827 45.5193 68.4714 45.2581C68.5601 44.9969 68.8445 44.8571 69.1068 44.9454L70.7619 45.5009C71.0242 45.5892 71.1646 45.8725 71.0759 46.1337C71.0057 46.3434 70.8099 46.4722 70.603 46.4722H70.5994Z" fill="#231F20"/>
<path d="M73.6177 54.4295C67.2671 54.4295 61.3893 50.5299 58.9954 44.7208C56.6901 39.1251 56.6088 32.79 56.5386 27.198C56.4758 22.2425 62.0137 18.9609 66.059 16.5622C66.1735 16.4923 66.3139 16.4739 66.4432 16.5107C66.5725 16.5438 66.6833 16.6321 66.7498 16.7462C70.5033 23.3719 76.599 28.1877 83.4742 29.9572C83.9619 30.0823 84.4569 30.2405 84.9372 30.3913C85.9236 30.7041 86.9396 31.0241 87.9112 31.083C88.1772 31.0977 88.3804 31.3184 88.3804 31.5796C88.3767 35.2475 88.373 37.8927 87.6563 41.5348C86.8694 45.5191 85.5874 49.5586 81.5679 52.1155C79.1962 53.6238 76.4476 54.4185 73.6177 54.4185V54.4295ZM66.1366 17.6806C62.3535 19.9285 57.4881 22.9709 57.5435 27.187C57.6137 32.687 57.6913 38.9228 59.9263 44.3419C62.1688 49.7793 67.6697 53.4325 73.6214 53.4325C76.2591 53.4325 78.823 52.6894 81.0323 51.284C84.7377 48.9295 85.9347 45.1181 86.6773 41.3509C87.3459 37.9552 87.3792 35.4168 87.3829 32.0395C86.4482 31.9218 85.532 31.6275 84.638 31.3479C84.1503 31.1934 83.6848 31.0462 83.2267 30.9285C76.2444 29.1332 70.0452 24.3174 66.1366 17.6843V17.6806Z" fill="#231F20"/>
<path d="M58.7738 45.9172C57.6285 45.9172 56.4315 45.4868 55.4119 44.6811C54.3664 43.8533 53.5204 42.6945 52.7446 41.0279C52.0205 39.4717 51.6991 38.1841 51.736 36.9737C51.7766 35.5757 52.3751 34.4168 53.3357 33.8687C54.7912 33.0372 56.5276 33.7804 57.5731 34.6707C57.7837 34.851 57.8058 35.1637 57.6285 35.3734C57.4475 35.5831 57.1335 35.6051 56.9229 35.4286C56.0621 34.6964 54.7765 34.1961 53.8344 34.7332C53.1805 35.1085 52.7704 35.9583 52.7372 37.0031C52.7076 38.0553 52.9958 39.1995 53.6534 40.6085C54.3627 42.1279 55.1163 43.1727 56.0362 43.9011C57.1372 44.7731 58.5226 45.1189 59.6567 44.8062C59.9227 44.7326 60.1998 44.8871 60.2737 45.152C60.3476 45.4169 60.1924 45.6928 59.9264 45.7664C59.557 45.8694 59.1691 45.9209 58.7775 45.9209L58.7738 45.9172Z" fill="#231F20"/>
<path d="M86.5628 45.9172C86.3781 45.9172 86.1971 45.9062 86.016 45.8841C85.7426 45.851 85.5468 45.6008 85.5801 45.3286C85.6133 45.0563 85.8646 44.865 86.1379 44.8945C87.1687 45.0232 88.3509 44.6517 89.3003 43.9011C90.2165 43.1764 90.9739 42.1279 91.6832 40.6085C92.3408 39.1995 92.6289 38.0553 92.5994 37.0031C92.5661 35.9546 92.1598 35.1048 91.5022 34.7332C90.5601 34.1961 89.2745 34.6928 88.4137 35.4286C88.2031 35.6088 87.8891 35.5831 87.708 35.3734C87.527 35.1637 87.5529 34.851 87.7635 34.6707C88.8053 33.7804 90.5416 33.0372 92.0009 33.8687C92.9614 34.4168 93.5599 35.5794 93.6006 36.9737C93.6375 38.1841 93.3161 39.4754 92.592 41.0279C91.8162 42.6945 90.9702 43.8533 89.9247 44.6811C88.9124 45.4831 87.7154 45.9172 86.5628 45.9172Z" fill="#231F20"/>
<path d="M28.587 112.947C28.5168 112.947 28.4466 112.932 28.3764 112.903C28.1252 112.789 28.0144 112.491 28.1326 112.24C32.9981 101.708 38.7207 86.1641 41.3363 78.6406C42.2045 76.139 43.4679 73.8102 45.0898 71.7132L45.16 71.6249C48.2411 67.6406 51.9687 65.0065 56.8822 63.3399L63.7685 61.0001C66.3434 60.1245 66.9937 58.3991 67.3446 55.3125L67.352 55.2536C67.4333 54.5105 67.4554 53.7232 67.4222 52.8402C67.4111 52.5643 67.6291 52.3326 67.9025 52.3252C67.9099 52.3252 67.9136 52.3252 67.9209 52.3252C68.1906 52.3252 68.4123 52.5349 68.4197 52.8035C68.4529 53.7342 68.4271 54.5693 68.3421 55.3566L68.3347 55.4229C68.017 58.2041 67.4555 60.7978 64.0899 61.9419L57.2036 64.2817C52.4194 65.9078 48.9467 68.3617 45.9505 72.2319L45.8804 72.3202C44.325 74.3326 43.1133 76.5694 42.2783 78.9681C39.659 86.5099 33.9217 102.09 29.0377 112.656C28.9528 112.84 28.7717 112.947 28.5833 112.947H28.587Z" fill="#231F20"/>
<path d="M118.737 113.34C118.549 113.34 118.368 113.234 118.283 113.05C113.103 101.892 106.904 85.2702 104.717 78.9682C103.882 76.5695 102.67 74.3327 101.115 72.3203L101.045 72.232C98.0486 68.3581 94.5759 65.9079 89.7917 64.2818L82.9054 61.942C79.5398 60.7979 78.9746 58.2042 78.6605 55.423L78.6532 55.3531C78.5719 54.5768 78.5423 53.8079 78.5645 53.0022C78.5719 52.73 78.7936 52.5166 79.0632 52.5166C79.0669 52.5166 79.0706 52.5166 79.0743 52.5166C79.3514 52.524 79.5694 52.7521 79.562 53.028C79.5435 53.7932 79.5694 54.5179 79.6469 55.2537L79.6543 55.3126C80.0053 58.3992 80.6555 60.1246 83.2305 61.0002L90.1168 63.34C95.0303 65.0103 98.7579 67.6444 101.839 71.625L101.909 71.7133C103.531 73.8103 104.794 76.1427 105.663 78.6407C107.846 84.928 114.027 101.509 119.191 112.63C119.306 112.881 119.199 113.175 118.948 113.293C118.881 113.322 118.807 113.34 118.737 113.34Z" fill="#231F20"/>
<path d="M74.5376 40.8102C74.3751 40.8102 74.2162 40.733 74.1202 40.5858C73.9687 40.3577 74.0315 40.0487 74.2642 39.8942C74.7852 39.5521 75.428 39.0738 75.7642 38.4189C76.0117 37.9333 76.093 37.1975 75.6866 36.7266C75.5056 36.5133 75.2285 36.3587 74.9329 36.1932C74.6226 36.0203 74.3049 35.84 74.0241 35.5641C73.3037 34.854 73.1744 33.8129 73.082 33.0514C73.0488 32.7791 73.2446 32.529 73.518 32.4959C73.7951 32.4627 74.0426 32.6577 74.0758 32.93C74.1756 33.7283 74.2901 34.4236 74.7297 34.854C74.9108 35.0343 75.162 35.1741 75.4243 35.3213C75.7642 35.5126 76.1484 35.7296 76.4439 36.0718C77.0572 36.7855 77.1422 37.9039 76.6545 38.8641C76.2149 39.7323 75.4391 40.3136 74.811 40.722C74.726 40.7771 74.63 40.8029 74.5376 40.8029V40.8102Z" fill="#231F20"/>
<path d="M89.1895 39.6813C89.1267 39.6813 89.0639 39.6703 89.0011 39.6445C88.7462 39.5415 88.6206 39.2509 88.724 38.997C89.0935 38.0883 89.7104 37.2973 90.5047 36.7161C90.7264 36.5542 91.0404 36.602 91.2029 36.8228C91.3655 37.0435 91.3175 37.3562 91.0958 37.5181C90.4604 37.9853 89.9469 38.6438 89.6476 39.3723C89.57 39.5672 89.3816 39.685 89.1821 39.685L89.1895 39.6813Z" fill="#231F20"/>
<path d="M56.2763 39.6811C56.0769 39.6811 55.8921 39.5633 55.8109 39.3684C55.5153 38.6399 54.9981 37.9814 54.3627 37.5142C54.141 37.3523 54.093 37.0396 54.2555 36.8188C54.4181 36.5981 54.7321 36.5503 54.9538 36.7122C55.7481 37.2934 56.365 38.0844 56.7345 38.9931C56.8379 39.2469 56.716 39.5376 56.4574 39.6406C56.3946 39.6663 56.3318 39.6774 56.269 39.6774L56.2763 39.6811Z" fill="#231F20"/>
<path d="M49.4011 135.079C49.4011 135.079 49.3937 135.079 49.39 135.079C49.1129 135.075 48.895 134.847 48.8987 134.571C48.943 132.265 49.4824 129.34 50.502 125.871C51.6916 121.831 52.5635 117.74 53.1029 113.708C53.2211 112.818 53.3725 111.964 53.5055 111.214C53.7383 109.897 53.9378 108.76 53.8824 107.954C53.8196 107.079 53.3725 106.255 52.6595 105.695C48.1376 102.167 46.2424 95.7733 48.1524 90.494C48.5847 89.2984 49.1868 88.1689 49.7705 87.08C50.1621 86.3442 50.5685 85.5863 50.9121 84.8248C51.9096 82.6064 52.146 80.6823 51.6177 79.1077C51.5291 78.8465 51.6694 78.5632 51.9317 78.4786C52.194 78.3903 52.4785 78.5301 52.5635 78.7913C53.1767 80.6124 52.9255 82.7793 51.8246 85.2331C51.4663 86.0278 51.0525 86.8004 50.6535 87.5509C50.0883 88.6104 49.5008 89.703 49.0945 90.8325C47.3286 95.7218 49.0871 101.641 53.2765 104.912C54.2149 105.644 54.7986 106.725 54.8798 107.884C54.9463 108.808 54.7358 110.003 54.4919 111.387C54.3552 112.163 54.2149 112.969 54.0966 113.841C53.5536 117.92 52.6669 122.063 51.4663 126.15C50.4725 129.531 49.9442 132.371 49.9035 134.59C49.8998 134.862 49.6745 135.079 49.4048 135.079H49.4011Z" fill="#231F20"/>
<path d="M98.5695 135.079C98.2961 135.079 98.0745 134.862 98.0708 134.59C98.0264 132.371 97.5018 129.531 96.5081 126.15C95.3074 122.063 94.4207 117.92 93.8777 113.841C93.7631 112.969 93.6191 112.163 93.4824 111.387C93.2385 110.003 93.028 108.811 93.0945 107.884C93.1757 106.725 93.7631 105.644 94.6978 104.912C98.8872 101.641 100.649 95.7181 98.8798 90.8325C98.4698 89.703 97.8861 88.6067 97.3208 87.5509C96.9218 86.8004 96.5081 86.0278 96.1497 85.2331C95.0451 82.7793 94.7976 80.6124 95.4108 78.7913C95.4995 78.5301 95.784 78.3903 96.0426 78.4786C96.3049 78.5669 96.4452 78.8465 96.3566 79.1077C95.8283 80.6823 96.0647 82.6064 97.0622 84.8248C97.4058 85.5863 97.8122 86.3479 98.2038 87.08C98.7875 88.1689 99.3897 89.2984 99.8219 90.494C101.732 95.7733 99.8367 102.167 95.3148 105.695C94.5981 106.255 94.1547 107.079 94.0919 107.954C94.0365 108.756 94.236 109.897 94.4688 111.214C94.6018 111.964 94.7495 112.818 94.8714 113.708C95.4071 117.737 96.2827 121.828 97.4723 125.871C98.4919 129.336 99.0313 132.265 99.0756 134.571C99.0793 134.847 98.8614 135.075 98.5843 135.079C98.5843 135.079 98.5769 135.079 98.5732 135.079H98.5695Z" fill="#231F20"/>
<path d="M35.7874 127.545C35.6913 127.545 35.5953 127.519 35.5103 127.46C35.2813 127.31 35.2184 126.997 35.3699 126.769C43.1576 115.136 48.5773 100.266 48.6327 100.119C48.725 99.861 49.0132 99.7249 49.2718 99.8168C49.5304 99.9088 49.6671 100.196 49.5748 100.453C49.5193 100.604 44.0591 115.581 36.2048 127.321C36.1088 127.464 35.9499 127.541 35.7874 127.541V127.545Z" fill="#231F20"/>
<path d="M112.283 127.545C112.12 127.545 111.962 127.467 111.865 127.324C104.008 115.588 98.5473 100.607 98.4956 100.457C98.4032 100.199 98.5362 99.9121 98.7985 99.8202C99.0571 99.7282 99.3453 99.8606 99.4377 100.122C99.4931 100.269 104.913 115.139 112.7 126.772C112.852 127 112.793 127.309 112.56 127.464C112.475 127.519 112.379 127.548 112.283 127.548V127.545Z" fill="#231F20"/>
<path d="M90.0872 166.255C89.1857 174.437 83.5814 175.25 83.9619 175.644L81.2392 174.93C58.5447 173.028 33.5227 160.432 33.5227 160.432C9.69407 148.085 2.76714 136.482 1.09359 129.05C0.040693 124.382 1.6108 119.529 5.16478 116.31C23.4851 99.7217 52.9699 126.92 52.9699 126.92L54.2666 129.378" fill="#F2F2F2"/>
<path d="M147.453 129.05C145.78 136.481 138.853 148.085 115.028 160.435C115.028 160.435 90.0059 173.032 67.3114 174.934C67.3114 174.934 66.2437 175.213 64.5887 175.647C64.5887 175.647 61.6812 173.87 59.5089 170.548L54.4181 168.933L49.9331 130.783L52.9773 126.92L52.992 126.946C53.8344 128.542 55.3306 129.701 57.0965 130.121C71.9737 133.652 86.6034 131.353 92.4405 130.139C94.0401 129.808 95.2778 128.55 95.577 126.949V126.924H95.5844C95.5844 126.924 95.5955 126.912 95.6139 126.898C96.0166 126.534 100.657 122.343 107.236 118.352C110.657 116.277 114.599 114.253 118.741 112.852C118.741 112.852 118.741 112.852 118.744 112.852C127.02 110.048 136.089 109.706 143.389 116.317C146.943 119.536 148.514 124.389 147.461 129.057L147.453 129.05Z" fill="#F2F2F2"/>
<path d="M129.761 113.249C131.279 113.256 132.864 113.381 134.168 114.154C135.476 114.927 136.403 116.52 135.96 117.965C135.484 119.511 133.769 120.246 132.258 120.828C126.129 123.182 120.2 126.055 114.562 129.414C113.502 130.043 112.39 130.713 111.156 130.753C109.922 130.794 108.563 129.94 108.537 128.712C107.706 129.135 106.849 129.561 105.918 129.635C104.987 129.709 103.96 129.337 103.531 128.513C103.21 127.891 103.283 127.137 103.465 126.46C104.17 123.822 106.28 121.792 108.485 120.169C114.588 115.677 122.169 113.212 129.761 113.253V113.249Z" fill="white"/>
<path d="M17.4226 113.249C15.9042 113.256 14.3194 113.381 13.0152 114.154C11.7074 114.927 10.7802 116.52 11.2235 117.965C11.7001 119.511 13.4142 120.246 14.9252 120.828C21.0542 123.182 26.9836 126.055 32.6212 129.414C33.6815 130.043 34.7935 130.713 36.0275 130.753C37.2614 130.794 38.6209 129.94 38.6468 128.712C39.478 129.135 40.3351 129.561 41.2661 129.635C42.197 129.709 43.2241 129.337 43.6526 128.513C43.974 127.891 43.9001 127.137 43.7191 126.46C43.0135 123.822 40.904 121.792 38.6985 120.169C32.5954 115.677 25.0145 113.212 17.4226 113.253V113.249Z" fill="white"/>
<path d="M81.2355 173.587C81.1875 173.587 81.1395 173.579 81.0915 173.565L62.9817 168.168C58.7221 166.898 54.5622 165.379 50.6166 163.65C38.222 158.22 26.5663 151.234 15.9709 142.879C10.023 138.192 2.93346 131.721 0.879397 123.233C0.812899 122.965 0.979145 122.696 1.24883 122.634C1.51852 122.571 1.78821 122.733 1.85102 123.001C3.83489 131.194 10.7729 137.511 16.5915 142.102C27.1205 150.402 38.7023 157.344 51.0193 162.741C54.928 164.452 59.0509 165.96 63.2662 167.215L81.3759 172.612C81.6419 172.689 81.7897 172.969 81.7121 173.234C81.6456 173.451 81.4498 173.59 81.2319 173.59L81.2355 173.587Z" fill="#00A52E"/>
<path d="M90.3642 166.777C90.161 166.777 89.9726 166.656 89.895 166.457C89.7953 166.2 89.9283 165.913 90.1869 165.813C105.334 160.093 119.454 152.113 132.155 142.103C137.977 137.515 144.912 131.195 146.895 123.002C146.962 122.733 147.232 122.568 147.498 122.634C147.767 122.7 147.93 122.969 147.867 123.233C145.809 131.721 138.72 138.192 132.776 142.879C119.993 152.956 105.784 160.983 90.5415 166.741C90.4824 166.763 90.4233 166.774 90.3642 166.774V166.777Z" fill="#00A52E"/>
<path d="M81.2355 175.43C81.2355 175.43 81.2059 175.43 81.1948 175.43C69.4135 174.444 57.0189 170.54 48.6918 167.439C39.6775 164.08 33.3565 160.913 33.2937 160.88C9.39113 148.489 2.3238 136.79 0.605921 129.156C-0.480222 124.344 1.13791 119.278 4.82858 115.938C9.10666 112.064 14.3379 110.221 20.3856 110.467C25.1808 110.662 30.4897 112.167 36.1605 114.944C45.7769 119.65 53.2396 126.485 53.3134 126.551C53.5166 126.739 53.5277 127.052 53.3393 127.254C53.1509 127.456 52.8332 127.468 52.6337 127.28C52.5598 127.214 45.1895 120.463 35.7024 115.827C23.0898 109.665 12.9303 109.948 5.50465 116.674C2.07997 119.775 0.580061 124.473 1.58493 128.935C3.25848 136.363 10.1965 147.779 33.7518 159.986C33.9956 160.107 58.9474 172.56 81.2798 174.429C81.5569 174.451 81.7601 174.694 81.7379 174.966C81.7157 175.227 81.4978 175.422 81.2392 175.422L81.2355 175.43Z" fill="#231F20"/>
<path d="M109.815 128.852C109.641 128.852 109.471 128.76 109.379 128.598C109.242 128.359 109.331 128.053 109.571 127.921C113.953 125.478 116.945 123.87 117.592 123.524L118.951 121.052C119.084 120.809 119.387 120.721 119.631 120.854C119.875 120.986 119.963 121.288 119.83 121.53L118.397 124.131C118.349 124.216 118.279 124.286 118.194 124.33C118.161 124.349 114.995 126.037 110.059 128.789C109.981 128.833 109.896 128.852 109.815 128.852Z" fill="#231F20"/>
<path d="M74.2717 150.402C74.1202 150.402 73.9724 150.336 73.8764 150.207C73.7064 149.99 73.7471 149.677 73.9687 149.508C75.6201 148.243 77.3565 147.032 79.1224 145.914C86.3079 141.37 94.3653 136.547 103.069 131.581C103.309 131.444 103.616 131.525 103.753 131.765C103.889 132.004 103.808 132.309 103.568 132.445C94.8752 137.404 86.8288 142.22 79.6581 146.756C77.9143 147.86 76.2075 149.052 74.5783 150.299C74.4859 150.369 74.3788 150.402 74.2717 150.402Z" fill="#231F20"/>
<path d="M37.4498 128.138C37.3685 128.138 37.2836 128.116 37.206 128.075C33.0129 125.75 30.3788 124.345 30.3529 124.33C30.268 124.286 30.1978 124.216 30.1497 124.131L28.7163 121.53C28.5833 121.288 28.672 120.986 28.9158 120.854C29.1596 120.721 29.4626 120.809 29.5956 121.052L30.9588 123.524C31.5425 123.837 34.0214 125.169 37.6936 127.207C37.9338 127.339 38.0224 127.645 37.8857 127.884C37.7934 128.046 37.6234 128.141 37.4498 128.141V128.138Z" fill="#231F20"/>
<path d="M83.962 176.143C83.9214 176.143 83.877 176.14 83.8327 176.125L81.1063 175.411C80.9216 175.363 80.7775 175.213 80.7405 175.025C80.7036 174.837 80.7775 174.646 80.9326 174.532C86.4188 170.456 87.5677 165.397 87.7524 164.352L86.3079 162.509C81.4129 156.273 75.5536 150.972 68.8853 146.756C61.7145 142.22 53.6571 137.397 44.9421 132.427C44.702 132.29 44.6207 131.985 44.7574 131.746C44.8941 131.507 45.2007 131.426 45.4409 131.562C54.1706 136.543 62.2391 141.374 69.4247 145.917C76.1891 150.196 82.1333 155.571 87.0985 161.899L88.676 163.911C88.7573 164.014 88.7943 164.143 88.7795 164.275C88.7536 164.518 88.0628 170.025 82.3365 174.709L84.0876 175.169C84.3536 175.238 84.5162 175.511 84.446 175.776C84.3869 176 84.1837 176.147 83.962 176.147V176.143Z" fill="#231F20"/>
<path d="M90.0871 166.755C89.9467 166.755 89.8101 166.696 89.7103 166.586L87.9075 164.544C87.7264 164.338 87.7449 164.021 87.9518 163.841C88.1587 163.657 88.4764 163.679 88.6574 163.885L90.4603 165.927C90.6413 166.133 90.6228 166.449 90.4159 166.63C90.3199 166.714 90.2017 166.755 90.0871 166.755Z" fill="#231F20"/>
<path d="M102.463 166.406C102.264 166.406 102.075 166.284 101.998 166.089C101.898 165.832 102.024 165.545 102.282 165.442C109.457 162.639 114.274 160.251 114.799 159.99C138.35 147.783 145.292 136.367 146.966 128.939C147.97 124.473 146.471 119.775 143.046 116.678C135.62 109.952 125.461 109.669 112.848 115.831C104.015 120.147 97.0178 126.294 96.0351 127.177C95.6545 128.899 94.3135 130.234 92.5771 130.602C75.9783 134.13 62.1799 131.78 57.0189 130.602C55.0941 130.165 53.4649 128.914 52.545 127.17L52.5339 127.148C52.4415 126.975 52.46 126.769 52.5782 126.614C52.6964 126.46 52.8922 126.386 53.0844 126.43C73.1854 130.875 93.5377 126.835 95.3442 126.456C96.2789 125.617 103.391 119.345 112.394 114.941C118.065 112.167 123.373 110.659 128.169 110.464C134.209 110.214 139.444 112.057 143.726 115.934C147.416 119.275 149.034 124.341 147.948 129.153C146.227 136.787 139.163 148.486 115.264 160.869C115.264 160.869 115.257 160.869 115.253 160.873C114.71 161.145 109.859 163.547 102.648 166.365C102.589 166.387 102.526 166.398 102.467 166.398L102.463 166.406ZM54.0523 127.659C54.8577 128.649 55.9733 129.348 57.2368 129.635C62.335 130.794 75.9636 133.115 92.3666 129.627C93.5044 129.385 94.4243 128.608 94.8639 127.571C93.0648 127.92 88.4431 128.73 82.2994 129.182C75.2395 129.701 64.7142 129.841 54.056 127.659H54.0523Z" fill="#231F20"/>
<path d="M64.5887 176.143C64.367 176.143 64.1638 175.996 64.1047 175.772C64.0345 175.507 64.1934 175.235 64.4631 175.165L67.1858 174.451C67.2154 174.444 67.2412 174.44 67.2708 174.436C69.4763 174.252 71.8038 173.954 74.1903 173.553C74.4637 173.506 74.7223 173.69 74.7667 173.962C74.811 174.234 74.63 174.492 74.3566 174.536C71.9552 174.937 69.6167 175.238 67.3964 175.422L64.7143 176.125C64.67 176.136 64.6293 176.143 64.5887 176.143Z" fill="#231F20"/>
<path d="M74.7407 66.0809C74.1865 66.0809 73.6287 66.0625 73.0745 66.0257C69.1991 65.7682 65.3828 64.613 62.0357 62.6853C61.7956 62.5491 61.7143 62.2438 61.8547 62.0047C61.9914 61.7655 62.298 61.6846 62.5382 61.8244C69.1733 65.6468 77.1937 66.1582 83.995 63.193C84.6563 62.9023 85.3398 62.5712 86.0196 62.1997C86.2634 62.0672 86.5663 62.1592 86.6993 62.3983C86.8323 62.6411 86.74 62.9428 86.4998 63.0752C85.7942 63.4578 85.0849 63.8037 84.3977 64.1053C81.409 65.4114 78.0988 66.0846 74.7444 66.0846L74.7407 66.0809Z" fill="#231F20"/>
<path d="M74.6411 69.2528C67.9395 69.2528 61.1862 67.0417 55.7407 62.8625C55.5227 62.6932 55.4821 62.3805 55.6483 62.1635C55.8183 61.9464 56.1323 61.9059 56.3503 62.0715C63.9754 67.9247 74.2532 69.7936 83.1788 66.9498C84.904 66.4016 86.6552 65.6695 88.5393 64.7203C89.7917 64.0876 91.033 63.3886 92.2336 62.6381C92.4664 62.4909 92.7767 62.5608 92.9245 62.7962C93.0723 63.028 93.0021 63.3371 92.7656 63.4842C91.5428 64.2494 90.2719 64.9631 88.9937 65.6106C87.0615 66.5856 85.2624 67.3361 83.4854 67.9026C80.6296 68.8113 77.6409 69.2565 74.6411 69.2565V69.2528Z" fill="#231F20"/>
<path d="M95.8542 166.508L108.581 165.464C108.581 165.464 113.535 164.61 117.4 163.205C117.4 163.205 121.065 160.968 132.037 163.37C132.037 163.37 139.462 163.506 139.621 170.585C139.621 170.585 139.85 176.659 133.825 177.983C133.825 177.983 125.003 179.874 119.062 180.503C119.062 180.503 104.259 180.223 92.1155 177.648L89.9321 177.052L95.8542 166.508Z" fill="#231F20"/>
<path d="M90.0207 166.387H95.8873C95.8873 166.387 99.6962 169.367 96.9919 173.7C96.9919 173.7 95.1485 176.776 90.2941 176.89L83.9619 175.672C83.9619 175.672 89.9357 172.718 90.0207 166.387Z" fill="#00B432"/>
<path d="M67.3113 175.43C67.1672 175.43 67.0231 175.368 66.9234 175.246C66.8827 175.198 65.9444 174.036 65.405 172.45C65.3163 172.189 65.4567 171.906 65.719 171.817C65.9813 171.729 66.2658 171.869 66.3544 172.13C66.8384 173.55 67.6955 174.606 67.7029 174.617C67.8765 174.831 67.8433 175.143 67.629 175.32C67.5366 175.393 67.4258 175.43 67.315 175.43H67.3113Z" fill="#231F20"/>
<path d="M112.778 93.4926L111.359 110.184L110.683 118.145L109.815 128.351C107.898 129.417 105.711 130.65 103.321 132.011L45.1971 131.993C42.2711 130.322 39.6444 128.851 37.4537 127.637L36.615 117.752L35.9316 109.724L34.5499 93.4926C34.3873 91.5464 35.9242 89.8799 37.8859 89.8799H109.446C111.407 89.8799 112.948 91.5501 112.782 93.4926H112.778Z" fill="#F2F2F2"/>
<path d="M45.197 131.993H103.32L97.5757 135.326H50.975L45.197 131.993Z" fill="#00B432"/>
<path d="M97.5758 135.823H50.975C50.8864 135.823 50.8014 135.8 50.7238 135.756L44.9458 132.423C44.75 132.309 44.654 132.081 44.7131 131.864C44.7722 131.647 44.9717 131.496 45.1971 131.496H103.321C103.546 131.496 103.745 131.647 103.804 131.864C103.864 132.081 103.768 132.313 103.572 132.423L97.827 135.756C97.7494 135.8 97.6644 135.823 97.5758 135.823ZM51.1117 134.826H97.4428L101.47 132.489H47.059L51.1117 134.826Z" fill="#231F20"/>
<g clip-path="url(#clip1_50_11428)">
<path d="M75.1735 101.986C74.9948 98.5507 73.3374 95.2174 70.6997 92.9844C71.2792 94.3585 70.6401 95.942 70.8947 97.4074C71.0734 98.4702 71.718 99.4096 72.5087 100.145C73.2995 100.88 74.2419 101.439 75.1735 101.986Z" fill="#87BE00"/>
<path d="M81.4995 94.8255C82.5719 95.1476 83.4277 95.942 84.2184 96.7257C85.0146 97.5094 85.8271 98.3307 86.8724 98.7279C87.9177 99.1305 89.2718 98.9748 89.9271 98.073C89.5534 99.1734 88.2752 99.737 87.1053 99.7585C85.9354 99.78 84.798 99.4042 83.6335 99.2486C80.4433 98.8191 77.069 100.172 75.0813 102.684C75.1138 100.725 75.3629 98.6849 76.4408 97.0371C77.5132 95.3892 79.6092 94.2566 81.4995 94.8255Z" fill="#87BE00"/>
<path d="M79.5387 99.2699C80.0316 98.5185 80.2645 97.6328 80.6003 96.8008C79.8962 98.3252 78.7317 99.6403 77.291 100.515C77.3831 100.526 77.4806 100.526 77.5727 100.526C78.0655 100.236 78.5855 99.9838 79.1217 99.7852C79.2788 99.6296 79.4196 99.4578 79.5387 99.2753V99.2699Z" fill="#ADD250"/>
<path d="M80.2268 99.4417C80.5355 99.3665 80.8443 99.3075 81.153 99.2592C81.2992 99.1787 81.4346 99.0874 81.5538 98.9747C81.9492 98.6097 82.1929 98.0836 82.2254 97.5469C81.6946 98.2984 81.0067 98.9425 80.2268 99.4363V99.4417Z" fill="#ADD250"/>
<path d="M83.3788 99.2214C83.9421 99.0335 84.4241 98.5719 84.5433 97.9922C83.9584 98.4323 83.3301 98.8242 82.6855 99.1785C82.9184 99.1838 83.1513 99.1999 83.3788 99.2214Z" fill="#ADD250"/>
<path d="M74.1499 120.284C74.3828 113.666 74.9298 107.058 75.7314 100.488C73.1641 106.989 73.0395 114.144 72.9529 121.122C72.9529 121.503 73.5541 121.616 73.8303 121.353C74.1065 121.09 74.139 120.666 74.1499 120.284Z" fill="#87BE00"/>
<path d="M89.2123 102.356C88.0262 103.645 87.2842 105.266 86.5692 106.86C85.8543 108.454 85.1339 110.081 83.9803 111.396C82.8266 112.711 81.153 113.698 79.3927 113.596C77.0909 113.462 75.1681 111.546 72.8662 111.492C73.2887 109.238 74.2094 107.032 75.791 105.368C77.3725 103.698 79.669 102.619 81.9763 102.797C83.1733 102.888 84.3269 103.296 85.5239 103.36C86.8184 103.43 88.1345 103.07 89.2123 102.362V102.356Z" fill="#87BE00"/>
<path d="M73.2183 111.256C75.3306 109.85 77.822 109.147 80.2052 108.267C82.5883 107.386 84.9985 106.238 86.5421 104.235C86.0655 105.513 85.031 106.533 83.8611 107.252C82.6912 107.971 81.3805 108.428 80.0806 108.878C77.795 109.673 75.5039 110.462 73.2183 111.256Z" fill="#ADD250"/>
<path d="M78.3744 107.858C79.1002 106.881 79.8368 105.888 80.2268 104.739C78.6723 106.591 77.1233 108.448 75.5688 110.3C76.7821 109.941 77.6216 108.872 78.369 107.858H78.3744Z" fill="#ADD250"/>
<path d="M81.8895 107.204C82.3228 106.409 82.7669 105.588 82.8536 104.691C82.2145 106.173 81.245 107.509 80.0317 108.578C80.438 108.68 80.8712 108.502 81.18 108.218C81.4887 107.939 81.6891 107.569 81.8895 107.204Z" fill="#ADD250"/>
<path d="M77.5783 109.957C77.1829 109.802 76.7063 109.625 76.3596 109.872C77.5187 110.355 78.7048 110.843 79.956 110.951C81.2071 111.058 82.5666 110.725 83.4007 109.791C81.5863 110.612 79.436 110.671 77.5783 109.957Z" fill="#ADD250"/>
<path d="M85.1664 108.213C83.5687 108.524 81.9276 108.589 80.3081 108.395C80.5627 108.734 80.9743 108.916 81.3859 109.023C82.6804 109.367 84.1319 109.056 85.1664 108.213Z" fill="#ADD250"/>
<path d="M73.6786 106.152C72.9149 104.509 71.6096 103.114 70.0118 102.233C68.4194 101.358 66.5888 101.004 64.7798 100.859C62.9653 100.714 61.1455 100.768 59.3311 100.645C60.5768 101.911 61.0642 103.726 61.3134 105.475C61.5571 107.225 61.6167 109.024 62.2016 110.693C62.7866 112.362 64.0377 113.946 65.7818 114.322C67.1196 114.611 68.5007 114.155 69.7573 113.613C70.7322 113.194 71.6908 112.717 72.5033 112.035C73.3157 111.353 73.9656 110.457 74.1931 109.426C74.4314 108.326 74.1606 107.172 73.6894 106.152H73.6786Z" fill="#87BE00"/>
<path d="M73.3536 111.031C71.4038 110.72 69.6381 109.646 68.192 108.315C66.7459 106.978 65.5814 105.379 64.4277 103.79C66.448 104.708 67.45 106.957 69.064 108.476C70.2772 109.619 71.8317 110.339 73.3536 111.036V111.031Z" fill="#ADD250"/>
<path d="M71.4254 110.451C71.0192 108.894 70.613 107.332 70.2067 105.775C70.1851 107.107 70.3746 108.438 70.77 109.71C70.8729 110.048 71.0679 110.435 71.4254 110.451Z" fill="#ADD250"/>
<path d="M68.3977 108.148C68.0619 106.828 67.7261 105.502 67.3903 104.182C67.3578 104.885 67.3308 105.599 67.4553 106.291C67.5799 106.984 67.8724 107.671 68.4032 108.148H68.3977Z" fill="#ADD250"/>
<path d="M66.838 108.079C65.576 108.079 64.0919 107.488 63.0195 106.817C64.4873 108.245 66.6159 108.981 68.6632 108.766C68.6361 108.353 68.4791 108.272 68.0783 108.154C67.6775 108.041 67.255 108.079 66.838 108.079Z" fill="#ADD250"/>
<path d="M64.5361 109.281C65.2998 110.28 66.4481 110.977 67.6884 111.214C68.9287 111.444 70.5373 111.101 71.6151 110.451C71.3822 110.317 70.9056 110.226 70.781 109.995C69.8332 110.532 68.6741 110.596 67.6017 110.392C66.5293 110.188 65.5273 109.738 64.5361 109.287V109.281Z" fill="#ADD250"/>
<path d="M84.0831 125.529C81.1259 127.864 77.3616 129.174 73.5757 129.185C69.7952 129.195 66.0201 127.907 63.052 125.588C64.2544 124.021 65.6626 122.588 67.3362 121.52C69.0098 120.451 70.9597 119.77 72.9474 119.759C75.0922 119.748 77.1829 120.516 79.0244 121.611C80.8605 122.706 82.4799 124.123 84.0886 125.529H84.0831Z" fill="#664A3B"/>
</g>
</g>
<defs>
<clipPath id="clip0_50_11428">
<rect width="148" height="181" fill="white" transform="translate(0.273438)"/>
</clipPath>
<clipPath id="clip1_50_11428">
<rect width="30.5962" height="36.2" fill="white" transform="translate(59.3311 92.9844)"/>
</clipPath>
</defs>
</svg>
